<svg width="134" height="134" viewBox="0 0 134 134" fill="none" xmlns="http://www.w3.org/2000/svg">
<path d="M67 2C102.971 2 132 30.0532 132 64.5C132 98.9468 102.971 127 67 127C31.0291 127 2 98.9468 2 64.5C2 30.0532 31.0291 2 67 2Z" fill="white" stroke="black" stroke-width="4"/>
<path d="M64.648 34.088C61.576 34.1733 58.4613 34.216 55.304 34.216C52.1467 34.216 49.2027 34.088 46.472 33.832C46.0453 33.832 45.3627 33.6187 44.424 33.192C43.5707 32.7653 42.6747 32.2533 41.736 31.656C40.7973 31.0587 39.944 30.4187 39.176 29.736C38.4933 28.968 38.152 28.2427 38.152 27.56C38.152 27.048 38.3653 26.664 38.792 26.408C39.2187 26.0667 39.7307 25.8107 40.328 25.64C41.0107 25.4693 41.6933 25.3413 42.376 25.256C43.144 25.0853 43.784 25 44.296 25C45.6613 24.9147 47.9653 24.7867 51.208 24.616C54.536 24.4453 58.2053 24.2747 62.216 24.104C66.2267 23.848 70.3227 23.6773 74.504 23.592C78.7707 23.4213 82.5253 23.2507 85.768 23.08C86.024 23.08 86.7067 23.08 87.816 23.08C88.9253 23.08 90.0347 23.1653 91.144 23.336C92.3387 23.5067 93.4053 23.7627 94.344 24.104C95.368 24.4453 95.88 25 95.88 25.768C95.88 26.28 95.7093 26.92 95.368 27.688C95.0267 28.456 94.5573 29.1813 93.96 29.864C93.3627 30.5467 92.68 31.1867 91.912 31.784C91.144 32.296 90.376 32.6373 89.608 32.808C88.1573 33.064 86.4507 33.2773 84.488 33.448C82.5253 33.5333 79.9227 33.576 76.68 33.576V66.216C76.68 68.9467 76.4667 72.2747 76.04 76.2C75.6133 80.1253 74.9307 84.0507 73.992 87.976C73.0533 91.816 71.816 95.3573 70.28 98.6C68.8293 101.843 67.08 104.104 65.032 105.384C64.0933 105.981 63.0267 106.237 61.832 106.152C60.7227 106.152 59.9547 105.981 59.528 105.64C59.1013 105.299 59.016 104.787 59.272 104.104C59.528 103.421 59.7413 102.867 59.912 102.44C60.936 99.7947 61.7467 96.936 62.344 93.864C63.0267 90.7067 63.5387 87.5067 63.88 84.264C64.2213 81.0213 64.4347 77.7787 64.52 74.536C64.6053 71.208 64.648 68.0507 64.648 65.064V34.088Z" fill="black"/>
</svg>
