<svg width="265" height="323" viewBox="0 0 265 323" fill="none" xmlns="http://www.w3.org/2000/svg">
<path d="M138 75.5C138 111.122 108.003 140 71 140C33.9969 140 4 111.122 4 75.5C4 39.8776 33.9969 11 71 11C108.003 11 138 39.8776 138 75.5Z" fill="white"/>
<path d="M71 9C109.035 9 140 38.7021 140 75.5C140 112.298 109.035 142 71 142C32.9647 142 2 112.298 2 75.5C2 38.7021 32.9647 9 71 9Z" stroke="#1F0000" stroke-opacity="0.99" stroke-width="4"/>
<path d="M69.648 47.088C66.576 47.1733 63.4613 47.216 60.304 47.216C57.1467 47.216 54.2027 47.088 51.472 46.832C51.0453 46.832 50.3627 46.6187 49.424 46.192C48.5707 45.7653 47.6747 45.2533 46.736 44.656C45.7973 44.0587 44.944 43.4187 44.176 42.736C43.4933 41.968 43.152 41.2427 43.152 40.56C43.152 40.048 43.3653 39.664 43.792 39.408C44.2187 39.0667 44.7307 38.8107 45.328 38.64C46.0107 38.4693 46.6933 38.3413 47.376 38.256C48.144 38.0853 48.784 38 49.296 38C50.6613 37.9147 52.9653 37.7867 56.208 37.616C59.536 37.4453 63.2053 37.2747 67.216 37.104C71.2267 36.848 75.3227 36.6773 79.504 36.592C83.7707 36.4213 87.5253 36.2507 90.768 36.08C91.024 36.08 91.7067 36.08 92.816 36.08C93.9253 36.08 95.0347 36.1653 96.144 36.336C97.3387 36.5067 98.4053 36.7627 99.344 37.104C100.368 37.4453 100.88 38 100.88 38.768C100.88 39.28 100.709 39.92 100.368 40.688C100.027 41.456 99.5573 42.1813 98.96 42.864C98.3627 43.5467 97.68 44.1867 96.912 44.784C96.144 45.296 95.376 45.6373 94.608 45.808C93.1573 46.064 91.4507 46.2773 89.488 46.448C87.5253 46.5333 84.9227 46.576 81.68 46.576V79.216C81.68 81.9467 81.4667 85.2747 81.04 89.2C80.6133 93.1253 79.9307 97.0507 78.992 100.976C78.0533 104.816 76.816 108.357 75.28 111.6C73.8293 114.843 72.08 117.104 70.032 118.384C69.0933 118.981 68.0267 119.237 66.832 119.152C65.7227 119.152 64.9547 118.981 64.528 118.64C64.1013 118.299 64.016 117.787 64.272 117.104C64.528 116.421 64.7413 115.867 64.912 115.44C65.936 112.795 66.7467 109.936 67.344 106.864C68.0267 103.707 68.5387 100.507 68.88 97.264C69.2213 94.0213 69.4347 90.7787 69.52 87.536C69.6053 84.208 69.648 81.0507 69.648 78.064V47.088Z" fill="black"/>
</svg>
