<svg width="50" height="50" viewBox="0 0 50 50" fill="none" xmlns="http://www.w3.org/2000/svg">
<circle cx="25" cy="25" r="25" fill="#5BAD32"/>
<path d="M21.312 33.92C21.9093 33.92 22.336 33.8027 22.592 33.568C22.848 33.3333 23.008 33.0027 23.072 32.576C23.1573 32.128 23.2 31.6267 23.2 31.072V25.76C23.2 25.376 23.2107 24.9387 23.232 24.448C23.2533 23.936 23.2853 23.4453 23.328 22.976C22.9867 22.9973 22.5813 23.0187 22.112 23.04C21.664 23.04 21.3227 23.0507 21.088 23.072V20.64C22.0693 20.64 22.9013 20.5867 23.584 20.48C24.2667 20.3733 24.8 20.2453 25.184 20.096C25.5893 19.9467 25.8667 19.808 26.016 19.68H27.744V30.848C27.744 31.1467 27.7333 31.5733 27.712 32.128C27.6907 32.6613 27.6587 33.1733 27.616 33.664C27.9573 33.6213 28.3307 33.6 28.736 33.6C29.1627 33.5787 29.4827 33.568 29.696 33.568V36H21.312V33.92ZM25.312 17.152C24.5867 17.152 23.9893 16.896 23.52 16.384C23.0507 15.872 22.816 15.2533 22.816 14.528C22.816 13.8027 23.0613 13.184 23.552 12.672C24.0427 12.16 24.6187 11.904 25.28 11.904C25.9627 11.904 26.528 12.16 26.976 12.672C27.4453 13.184 27.68 13.8027 27.68 14.528C27.68 15.2533 27.4667 15.872 27.04 16.384C26.6133 16.896 26.0373 17.152 25.312 17.152Z" fill="#1F1F1F"/>
</svg>
