<svg width="1210" height="1165" viewBox="0 0 1210 1165" fill="none" xmlns="http://www.w3.org/2000/svg">
<path d="M40.7024 42.5141C40.7024 41.4096 41.5978 40.5142 42.7024 40.5142H1167.6C1168.7 40.5142 1169.6 41.4096 1169.6 42.5142V1122.03C1169.6 1123.13 1168.7 1124.03 1167.6 1124.03H42.7024C41.5978 1124.03 40.7024 1123.13 40.7024 1122.03V42.5141Z" fill="white"/>
<path d="M42.7024 40.5142V41.5142H1167.6V40.5142V39.5142H42.7024V40.5142ZM1169.6 42.5142H1168.6V1122.03H1169.6H1170.6V42.5142H1169.6ZM1167.6 1124.03V1123.03H42.7024V1124.03V1125.03H1167.6V1124.03ZM40.7024 1122.03H41.7024V42.5141H40.7024H39.7024V1122.03H40.7024ZM42.7024 1124.03V1123.03C42.1501 1123.03 41.7024 1122.58 41.7024 1122.03H40.7024H39.7024C39.7024 1123.68 41.0455 1125.03 42.7024 1125.03V1124.03ZM1169.6 1122.03H1168.6C1168.6 1122.58 1168.15 1123.03 1167.6 1123.03V1124.03V1125.03C1169.26 1125.03 1170.6 1123.68 1170.6 1122.03H1169.6ZM1167.6 40.5142V41.5142C1168.15 41.5142 1168.6 41.9619 1168.6 42.5142H1169.6H1170.6C1170.6 40.8573 1169.26 39.5142 1167.6 39.5142V40.5142ZM42.7024 40.5142V39.5142C41.0455 39.5142 39.7024 40.8573 39.7024 42.5141H40.7024H41.7024C41.7024 41.9619 42.1501 41.5142 42.7024 41.5142V40.5142Z" fill="black" fill-opacity="0.1"/>
<path d="M599.007 148C847.872 144.198 1058.93 344.4 1062.5 578.008C1066.07 811.61 862.863 1012.7 613.992 1016.5C365.116 1020.3 151.443 824.855 147.874 591.258C144.306 357.653 350.14 151.802 599.007 148Z" fill="#606726"/>
<path d="M599.007 148C847.872 144.198 1058.93 344.4 1062.5 578.008C1066.07 811.61 862.863 1012.7 613.992 1016.5C365.116 1020.3 151.443 824.855 147.874 591.258C144.306 357.653 350.14 151.802 599.007 148Z" stroke="black"/>
<path d="M599.007 148C847.872 144.198 1058.93 344.4 1062.5 578.008C1066.07 811.61 862.863 1012.7 613.992 1016.5C365.116 1020.3 151.443 824.855 147.874 591.258C144.306 357.653 350.14 151.802 599.007 148Z" stroke="black" stroke-opacity="0.2"/>
<ellipse cx="603" cy="585" rx="428" ry="407" fill="#2E3F0B"/>
<g filter="url(#filter0_d_0_1)">
<path d="M493.719 669.072C494.211 672.572 491.256 676.072 495.688 676.572C500.121 677.072 502.091 679.572 507.508 675.572C512.925 671.572 518.343 671.572 520.313 668.072C522.282 664.572 526.715 662.572 520.313 664.572C513.91 666.572 512.847 666.827 506.523 670.572C500.613 674.072 498.643 667.072 497.166 670.572C497.166 670.934 497.173 671.267 497.186 671.572C497.353 675.484 498.527 674.922 499.136 674.072" stroke="#FF0000" stroke-width="4" shape-rendering="crispEdges"/>
</g>
<g opacity="0.9" filter="url(#filter1_d_0_1)">
<path d="M492.241 682.572C492.734 694.072 492.241 694.689 492.241 696.189C492.241 697.689 494.211 693.189 497.658 688.689C501.106 684.189 504.061 680.689 513.91 677.689C523.76 674.689 537.55 658.572 526.222 672.572C514.895 686.572 520.313 684.572 512.925 689.572C505.538 694.572 491.84 701.809 504.553 697.189C515.88 693.072 509.133 698.186 515.388 696.189C526.715 692.572 522.775 696.689 527.7 691.189C531.64 686.789 524.252 688.572 527.7 685.572" stroke="#FF0000" stroke-width="3" shape-rendering="crispEdges"/>
</g>
<path d="M443.02 632.237C443.02 638.812 449.131 641.442 451.389 643.633C453.646 645.825 464.662 651.416 485.839 651.416C485.839 651.416 518.962 650.646 529.656 648.893C540.35 647.14 552.792 644.072 556.441 635.744C560.09 627.416 557.262 628.585 556.441 627.416" stroke="white" stroke-width="4"/>
<path d="M523.394 619.07C525.698 619.124 527.929 619.219 530.084 619.366C539.028 619.976 546.44 621.472 552.077 624.514C557.62 627.505 561.521 632.031 563.455 638.981C565.418 646.032 565.386 655.696 562.707 668.926C557.313 695.557 550.098 706.131 540.359 710.678C535.385 713 529.552 713.854 522.502 714.205C518.984 714.38 515.219 714.429 511.14 714.487C507.073 714.546 502.712 714.614 498.06 714.831C479.587 715.694 467.212 714.371 458.353 707.453C449.499 700.539 443.688 687.656 439.515 663.977C437.444 652.228 437.53 643.815 439.324 637.746C441.083 631.796 444.518 627.979 449.543 625.409C454.675 622.785 461.609 620.691 470.02 620.691C470.401 620.658 472.549 620.723 472.936 620.691" stroke="white" stroke-width="3"/>
<path d="M464.662 710.916C471.557 718.416 478.944 721.416 489.286 721.416C499.628 721.416 491.749 721.416 511.448 721.416C531.147 721.416 539.52 711.916 540.997 710.916" stroke="white" stroke-width="3"/>
<path d="M517.259 618.512C521.462 617.811 523.783 618.889 524.154 618.512C524.647 618.012 525.456 619.311 525.632 620.012" stroke="white" stroke-width="3"/>
<path d="M475.097 625.115C475.097 620.088 479.181 616.012 484.22 616.012C489.08 616.012 493.053 619.805 493.327 624.587" stroke="white" stroke-width="3"/>
<path d="M504.075 628.864C503.779 625.565 500.774 623.509 497.111 623.509C493.251 623.509 490.122 626.386 490.122 629.935C490.122 633.484 493.251 636.361 497.111 636.361C498.674 636.361 500.118 635.889 501.282 635.091" stroke="white" stroke-width="2"/>
<path d="M442.033 633.787C444.107 637.772 446.521 631.01 446.201 629.953C445.8 628.633 451.209 631.296 452.533 630.787C457.831 628.752 455.534 633.787 461.533 633.787C467.033 633.787 466.533 621.787 475.033 624.059" stroke="white" stroke-width="3"/>
<path d="M526 625.012C527 625.512 531.637 625.178 534.66 626.741C541.641 630.35 551.556 624.936 558 626.741" stroke="white" stroke-width="3"/>
<path d="M501.928 635.826C500.855 635.29 499.302 634.46 499.302 632.411C499.302 630.341 500.934 628.662 502.947 628.662C504.96 628.662 506.592 630.341 506.592 632.411C506.592 632.777 506.687 633.007 506.592 633.341" stroke="white" stroke-width="2"/>
<path d="M533.159 630.435C534.829 630.435 536.215 631.787 536.3 633.515L536.304 633.684V633.687C536.304 633.691 536.304 633.699 536.303 633.709C536.303 633.731 536.302 633.765 536.299 633.81C536.292 633.9 536.279 634.031 536.254 634.189C536.202 634.509 536.099 634.927 535.899 635.339C535.7 635.75 535.409 636.143 534.984 636.434C534.563 636.723 533.98 636.932 533.159 636.932C531.435 636.932 530.015 635.491 530.014 633.684C530.014 631.877 531.435 630.435 533.159 630.435Z" stroke="white"/>
<path d="M519.102 622.839C519.171 620.831 520.776 619.225 522.745 619.225C524.758 619.225 526.39 620.903 526.39 622.973C526.39 624.617 525.361 626.014 523.93 626.52" stroke="white" stroke-width="2"/>
<path d="M512.124 637.399C512.3 637.421 512.479 637.432 512.661 637.432C515.032 637.432 516.954 635.514 516.954 633.148C516.954 630.782 515.032 628.864 512.661 628.864C510.29 628.864 508.368 630.782 508.368 633.148C508.368 633.333 508.379 633.516 508.402 633.695" stroke="white" stroke-width="2"/>
<path d="M471.341 627.222C473.14 627.222 474.597 628.678 474.597 630.471C474.597 632.264 473.14 633.719 471.341 633.719C469.542 633.719 468.084 632.264 468.084 630.471C468.084 628.678 469.542 627.222 471.341 627.222Z" stroke="white"/>
<path d="M474.024 632.386C474.163 632.402 474.305 632.411 474.449 632.411C476.462 632.411 478.094 630.733 478.094 628.662C478.094 626.592 476.462 624.914 474.449 624.914C472.919 624.914 471.609 625.883 471.069 627.257" stroke="white" stroke-width="2"/>
<path d="M530.567 631.711C529.754 629.428 527.57 627.793 525.003 627.793C521.743 627.793 519.1 630.43 519.1 633.684C519.1 636.937 521.743 639.574 525.003 639.574C527.519 639.574 529.668 638.003 530.517 635.79" stroke="white" stroke-width="2"/>
<path d="M519.1 634.195C518.923 634.211 518.744 634.219 518.564 634.219C517.806 634.219 517.082 634.077 516.417 633.818" stroke="white"/>
<path d="M512.71 629.097C512.678 628.846 512.661 628.589 512.661 628.329C512.661 625.075 515.303 622.438 518.564 622.438C521.643 622.438 524.171 624.791 524.442 627.793" stroke="white" stroke-width="2"/>
<path d="M506.758 634.148C509.665 634.148 511.66 636.038 511.661 637.967C511.661 639.897 509.665 641.788 506.758 641.788C503.851 641.788 501.855 639.897 501.855 637.967C501.855 636.038 503.852 634.148 506.758 634.148Z" stroke="white" stroke-width="2"/>
<path d="M476.959 630.628C478.626 632.811 481.258 634.219 484.22 634.219C486.689 634.219 488.929 633.24 490.572 631.649" stroke="white" stroke-width="2"/>
<g filter="url(#filter2_d_0_1)">
<path d="M568.551 367.24C567.943 375.815 556.884 387.184 550.528 387.045C543.559 386.893 534.776 378.646 539.931 369.563C546.236 358.453 553.238 355.194 555.12 354.647C561.517 352.788 569.159 358.665 568.551 367.24Z" fill="#354E03"/>
<path d="M597.153 519.612C600.502 519.685 617.624 519.979 619.641 520.104C621.255 520.204 603.137 521.119 597.153 519.612Z" fill="#354E03"/>
<path d="M723.489 325.834C712.489 372.671 716.311 364.776 687.448 341.646C680.921 335.161 658.101 327.107 658.404 312.669C658.706 298.231 672.251 283.817 688.58 284.174C704.909 284.531 726.262 307.349 723.489 325.834Z" fill="#354E03"/>
<path d="M588.092 391.166C589.158 389.352 590.302 387.585 591.553 385.9C609.569 361.627 614.646 330.451 622.122 331.615C633.335 333.36 619.96 366.58 602.862 395.41C588.846 419.041 561.934 441.986 548.599 445.895C544.275 447.162 538.731 443.721 541.474 440.078C548.153 431.207 575.15 413.206 588.092 391.166Z" fill="#354E03"/>
<path d="M714.131 375.626C715.619 374.659 709.295 373.02 714.236 370.629M613.277 520.411C635.277 520.892 672.17 499.919 697.28 456.253C714.537 426.244 719.248 388.237 712.291 370.086M550.823 443.048C556.054 448.732 553.266 444.066 556.017 452.246C557.853 457.701 548.643 468.032 547.824 469.481C542.237 479.358 529.421 484.077 523.97 487.458C520.084 489.868 512.833 493.328 509.593 496.643C506.899 499.399 507.054 501.087 507.002 503.586C506.928 507.142 508.765 510.563 510.278 510.657C511.791 510.75 514.395 509.985 520.822 508.046C527.494 506.034 529.393 504.482 537.802 504.26C541.817 504.154 551.644 506.209 556.782 508.833C561.92 511.457 571.733 515.388 575.206 516.578C578.679 517.767 590.308 519.462 597.153 519.612M597.153 519.612C600.502 519.685 617.624 519.979 619.641 520.104C621.255 520.204 603.137 521.119 597.153 519.612ZM546.113 437.929C539.504 421.522 535.126 405.874 560.75 378.097C584.725 342.296 600.418 340.071 615.036 342.959M634.603 342.888C634.415 342.055 634.27 341.219 634.165 340.377C633.225 332.878 635.442 324.918 639.278 314.705C650.265 285.448 670.953 262.525 696.047 266.451C721.142 270.376 740.64 299.837 736.433 327.944C734.066 343.753 725.67 359.859 714.311 370.23M634.011 339.191C634.467 338.932 634.922 338.678 635.378 338.428M634.966 343.573C635.559 346.101 636.349 346.258 632.568 345.849C628.25 345.382 625.584 342.746 624.791 341.487L624.766 342.672M634.634 341.388C635.58 342.909 635.414 343.833 635.549 344.408M568.551 367.24C567.943 375.815 556.884 387.184 550.528 387.045C543.559 386.893 534.776 378.646 539.931 369.563C546.236 358.453 553.238 355.194 555.12 354.647C561.517 352.788 569.159 358.665 568.551 367.24ZM723.489 325.834C712.489 372.671 716.311 364.776 687.448 341.646C680.921 335.161 658.101 327.107 658.404 312.669C658.706 298.231 672.251 283.817 688.58 284.174C704.909 284.531 726.262 307.349 723.489 325.834ZM622.122 331.615C614.646 330.451 609.569 361.627 591.553 385.9C590.302 387.585 589.158 389.352 588.092 391.166C575.15 413.206 548.153 431.207 541.474 440.078C538.731 443.721 544.275 447.162 548.599 445.895C561.934 441.986 588.846 419.041 602.862 395.41C619.96 366.58 633.335 333.36 622.122 331.615Z" stroke="white" stroke-width="3"/>
</g>
<g filter="url(#filter3_d_0_1)">
<path d="M516.598 619.512C517.322 614.274 516.086 605.981 516.598 598.493C518.326 573.173 518.412 569.141 513.211 535.029C508.009 500.917 513.679 513.14 514.025 497.012M476.5 619.512C477.393 605.448 481.282 606.951 488.132 586.504C495.762 563.73 497.615 561.257 497.769 543.506C497.922 525.755 502.268 532.143 508.925 497.818" stroke="white" stroke-width="3"/>
</g>
<g filter="url(#filter4_d_0_1)">
<path d="M649.012 656.823C640.123 657.122 633.414 658.621 638.755 658.621C644.226 658.621 647.645 658.921 653.115 658.021C658.586 657.122 661.321 656.223 661.321 655.624C661.321 652.797 658.586 651.428 644.909 653.226C635.336 654.485 612.77 656.823 604.565 658.021C592.256 659.82 604.2 661.496 606.935 662.306C609.671 663.116 610.719 663.116 626.447 663.116C635.336 663.116 650.38 664.315 665.424 661.918C680.467 659.52 677.732 658.021 679.1 656.823" stroke="white" stroke-width="4"/>
<path d="M633.6 692.072C634.1 695.572 631.1 699.072 635.6 699.572C640.1 700.072 642.1 702.572 647.6 698.572C653.1 694.572 658.6 694.572 660.6 691.072C662.6 687.572 667.1 685.572 660.6 687.572C654.1 689.572 653.02 689.827 646.6 693.572C640.6 697.072 638.6 690.072 637.1 693.572C637.1 693.934 637.107 694.267 637.12 694.572C637.289 698.484 638.481 697.922 639.1 697.072" stroke="#FF0000" stroke-width="4"/>
<path d="M607.1 685.072C610.6 689.572 613.6 689.558 614.6 689.572M614.6 689.572C614.911 689.577 619.243 689.572 619.6 689.572C625.6 689.572 625.6 689.572 626.1 689.572H614.6Z" stroke="#FF0000" stroke-width="4"/>
<path d="M614.6 678.072C615.6 681.072 616.1 683.072 620.1 684.572C623.3 685.772 626.933 685.406 627.6 685.572" stroke="#FF0000" stroke-width="4"/>
<path d="M635.1 682.572C641.6 687.572 638.6 687.572 644.6 686.572C649.4 685.772 653.6 684.572 655.1 684.072" stroke="#FF0000" stroke-width="4"/>
<path d="M620.6 694.072C612.6 697.072 615.6 695.572 609.1 698.572M609.1 698.572C603.862 700.99 603.933 701.906 603.6 702.072L609.1 698.572Z" stroke="#FF0000" stroke-width="4"/>
<path d="M623.6 693.072C619.1 701.072 618.1 694.572 616.1 705.572M616.1 705.572C614.5 714.372 613.433 717.906 613.1 718.572L616.1 705.572Z" stroke="#FF0000" stroke-width="4"/>
<path d="M622.6 699.072C623.1 704.072 620.49 706.572 625.1 706.572M625.1 706.572C628.1 706.572 627.6 707.572 627.6 710.572L625.1 706.572Z" stroke="#FF0000" stroke-width="4"/>
<path opacity="0.9" d="M632.1 705.572C632.6 717.072 632.1 717.689 632.1 719.189C632.1 720.689 634.1 716.189 637.6 711.689C641.1 707.189 644.1 703.689 654.1 700.689C664.1 697.689 678.1 681.572 666.6 695.572C655.1 709.572 660.6 707.572 653.1 712.572C645.6 717.572 631.693 724.809 644.6 720.189C656.1 716.072 649.25 721.186 655.6 719.189C667.1 715.572 663.1 719.689 668.1 714.189C672.1 709.789 664.6 711.572 668.1 708.572" stroke="#FF0000" stroke-width="4"/>
<path d="M582.127 655.237C582.127 661.812 588.331 664.442 590.623 666.633C592.916 668.825 604.1 674.416 625.6 674.416C625.6 674.416 659.229 673.646 670.086 671.893C680.943 670.14 693.575 667.072 697.28 658.744C700.985 650.416 698.113 651.585 697.28 650.416" stroke="white" stroke-width="4"/>
<path d="M639.666 642.415C651.058 642.039 661.457 641.757 670.52 642.366C679.601 642.976 687.126 644.472 692.849 647.514C698.477 650.505 702.437 655.03 704.401 661.98C706.394 669.032 706.361 678.696 703.641 691.926C698.165 718.557 690.839 729.131 680.952 733.678C675.902 736 669.98 736.854 662.822 737.205C659.251 737.38 655.428 737.429 651.287 737.487C647.158 737.546 642.731 737.614 638.008 737.831C619.252 738.694 606.689 737.371 597.694 730.453C588.705 723.539 582.806 710.656 578.568 686.977C576.466 675.228 576.554 666.815 578.375 660.746C580.161 654.796 583.648 650.979 588.75 648.409C593.96 645.785 600.896 644.444 609.539 643.691C618.171 642.94 628.232 642.792 639.666 642.415Z" stroke="white" stroke-width="4"/>
<path d="M604.1 733.916C611.1 741.416 618.6 744.416 629.1 744.416C639.6 744.416 631.6 744.416 651.6 744.416C671.6 744.416 680.1 734.916 681.6 733.916" stroke="white" stroke-width="4"/>
</g>
<g filter="url(#filter5_d_0_1)">
<path d="M332.458 801.604L340.81 799.3V757.732L332.746 758.404L325.642 766.948L318.634 766.372C318.634 761.06 318.89 754.372 319.402 746.308H379.498C380.01 754.372 380.266 761.06 380.266 766.372L373.354 766.948L366.154 758.404L358.282 757.732V795.46C358.282 796.996 358.378 797.988 358.57 798.436C358.762 798.884 359.306 799.332 360.202 799.78L366.154 803.332L365.77 811.012H332.938L332.458 801.604ZM406.221 812.164C398.733 812.164 392.941 809.892 388.845 805.348C384.813 800.804 382.797 794.532 382.797 786.532C382.797 780.964 383.789 776.196 385.773 772.228C387.757 768.196 390.573 765.124 394.221 763.012C397.869 760.9 402.125 759.844 406.989 759.844C414.221 759.844 419.757 762.148 423.597 766.756C427.501 771.364 429.357 777.924 429.165 786.436L399.981 791.812C400.877 794.5 402.125 796.484 403.725 797.764C405.389 798.98 407.565 799.588 410.253 799.588C412.109 799.588 414.317 799.332 416.877 798.82C419.437 798.244 422.029 797.476 424.653 796.516L426.861 806.02C424.493 807.812 421.421 809.284 417.645 810.436C413.869 811.588 410.061 812.164 406.221 812.164ZM413.421 778.372C413.293 775.94 412.589 774.18 411.309 773.092C410.093 771.94 408.365 771.364 406.125 771.364C404.269 771.364 402.509 771.62 400.845 772.132C399.501 775.268 398.893 778.66 399.021 782.308L413.421 778.372ZM450.62 812.26C446.268 812.26 442.78 811.076 440.156 808.708C437.532 806.276 436.22 803.172 436.22 799.396C436.22 794.34 438.748 790.372 443.804 787.492C448.924 784.612 456.348 782.98 466.076 782.596C466.076 779.588 465.82 777.38 465.308 775.972C464.86 774.5 463.996 773.508 462.716 772.996C461.5 772.42 459.612 772.132 457.052 772.132C454.428 772.132 452.572 772.228 451.484 772.42L447.548 780.196L440.444 779.716C439.356 774.596 438.588 769.284 438.14 763.78C441.724 762.564 445.628 761.604 449.852 760.9C454.14 760.196 458.14 759.844 461.852 759.844C468.636 759.844 473.5 761.188 476.444 763.876C479.388 766.5 480.86 770.884 480.86 777.028V797.092C480.86 798.244 480.956 799.044 481.148 799.492C481.404 799.94 481.916 800.388 482.684 800.836L486.524 803.044L486.14 808.996C478.716 810.724 472.86 811.684 468.572 811.876C468.444 811.492 468.252 810.82 467.996 809.86C467.74 808.836 467.516 807.876 467.324 806.98C464.828 808.58 462.076 809.86 459.068 810.82C456.124 811.78 453.308 812.26 450.62 812.26ZM457.052 801.412C459.612 801.412 462.716 800.548 466.364 798.82L465.98 791.524C464.444 791.396 463.42 791.332 462.908 791.332C461.18 791.332 459.164 791.524 456.86 791.908C454.556 792.228 452.732 792.612 451.388 793.06C451.196 793.892 451.1 794.66 451.1 795.364C451.1 797.284 451.612 798.788 452.636 799.876C453.724 800.9 455.196 801.412 457.052 801.412ZM536.133 811.3C529.221 811.3 522.853 811.012 517.029 810.436L516.549 801.22L523.557 799.3V762.724C523.557 761.06 523.429 759.972 523.173 759.46C522.917 758.884 522.245 758.372 521.157 757.924L516.165 755.14L516.741 747.172C523.397 746.66 528.997 746.276 533.541 746.02C538.085 745.7 541.733 745.54 544.485 745.54C553.317 745.54 560.389 746.564 565.701 748.612C571.077 750.66 574.981 753.892 577.413 758.308C579.909 762.724 581.157 768.58 581.157 775.876C581.157 785.092 579.045 792.548 574.821 798.244C571.045 803.172 566.021 806.596 559.749 808.516C553.541 810.372 545.669 811.3 536.133 811.3ZM548.229 797.572C553.605 797.572 557.861 796.932 560.997 795.652C561.573 794.052 562.085 791.556 562.533 788.164C563.045 784.772 563.301 781.604 563.301 778.66C563.301 771.428 561.797 766.084 558.789 762.628C555.845 759.172 551.333 757.444 545.253 757.444C544.421 757.444 543.653 757.476 542.949 757.54C542.245 757.604 541.573 757.668 540.933 757.732V797.092C543.493 797.412 545.925 797.572 548.229 797.572ZM614.429 812.164C606.941 812.164 601.149 809.892 597.053 805.348C593.021 800.804 591.005 794.532 591.005 786.532C591.005 780.964 591.997 776.196 593.981 772.228C595.965 768.196 598.781 765.124 602.429 763.012C606.077 760.9 610.333 759.844 615.197 759.844C622.429 759.844 627.965 762.148 631.805 766.756C635.709 771.364 637.565 777.924 637.373 786.436L608.189 791.812C609.085 794.5 610.333 796.484 611.933 797.764C613.597 798.98 615.773 799.588 618.461 799.588C620.317 799.588 622.525 799.332 625.085 798.82C627.645 798.244 630.237 797.476 632.861 796.516L635.069 806.02C632.701 807.812 629.629 809.284 625.853 810.436C622.077 811.588 618.269 812.164 614.429 812.164ZM621.629 778.372C621.501 775.94 620.797 774.18 619.517 773.092C618.301 771.94 616.573 771.364 614.333 771.364C612.477 771.364 610.717 771.62 609.053 772.132C607.709 775.268 607.101 778.66 607.229 782.308L621.629 778.372ZM658.827 812.26C654.475 812.26 650.987 811.076 648.363 808.708C645.739 806.276 644.427 803.172 644.427 799.396C644.427 794.34 646.955 790.372 652.011 787.492C657.131 784.612 664.555 782.98 674.283 782.596C674.283 779.588 674.027 777.38 673.515 775.972C673.067 774.5 672.203 773.508 670.923 772.996C669.707 772.42 667.819 772.132 665.259 772.132C662.635 772.132 660.779 772.228 659.691 772.42L655.755 780.196L648.651 779.716C647.563 774.596 646.795 769.284 646.347 763.78C649.931 762.564 653.835 761.604 658.059 760.9C662.347 760.196 666.347 759.844 670.059 759.844C676.843 759.844 681.707 761.188 684.651 763.876C687.595 766.5 689.067 770.884 689.067 777.028V797.092C689.067 798.244 689.163 799.044 689.355 799.492C689.611 799.94 690.123 800.388 690.891 800.836L694.731 803.044L694.347 808.996C686.923 810.724 681.067 811.684 676.779 811.876C676.651 811.492 676.459 810.82 676.203 809.86C675.947 808.836 675.723 807.876 675.531 806.98C673.035 808.58 670.283 809.86 667.275 810.82C664.331 811.78 661.515 812.26 658.827 812.26ZM665.259 801.412C667.819 801.412 670.923 800.548 674.571 798.82L674.187 791.524C672.651 791.396 671.627 791.332 671.115 791.332C669.387 791.332 667.371 791.524 665.067 791.908C662.763 792.228 660.939 792.612 659.595 793.06C659.403 793.892 659.307 794.66 659.307 795.364C659.307 797.284 659.819 798.788 660.843 799.876C661.931 800.9 663.403 801.412 665.259 801.412ZM700.944 802.18L707.664 800.164V754.18C707.664 752.772 707.536 751.876 707.28 751.492C707.088 751.044 706.544 750.564 705.648 750.052L701.424 747.844L701.904 740.548C703.184 740.292 704.176 740.132 704.88 740.068C713.328 738.532 719.216 737.7 722.544 737.572C723.184 739.044 723.6 740.708 723.792 742.564V796.996C723.792 798.34 723.888 799.236 724.08 799.684C724.272 800.132 724.816 800.612 725.712 801.124L730.416 803.812L730.032 811.012H701.232L700.944 802.18ZM759.569 812.164C752.081 812.164 746.289 809.892 742.193 805.348C738.161 800.804 736.145 794.532 736.145 786.532C736.145 780.964 737.137 776.196 739.121 772.228C741.105 768.196 743.921 765.124 747.569 763.012C751.217 760.9 755.473 759.844 760.337 759.844C767.569 759.844 773.105 762.148 776.945 766.756C780.849 771.364 782.705 777.924 782.513 786.436L753.329 791.812C754.225 794.5 755.473 796.484 757.073 797.764C758.737 798.98 760.913 799.588 763.601 799.588C765.457 799.588 767.665 799.332 770.225 798.82C772.785 798.244 775.377 797.476 778.001 796.516L780.209 806.02C777.841 807.812 774.769 809.284 770.993 810.436C767.217 811.588 763.409 812.164 759.569 812.164ZM766.769 778.372C766.641 775.94 765.937 774.18 764.657 773.092C763.441 771.94 761.713 771.364 759.473 771.364C757.617 771.364 755.857 771.62 754.193 772.132C752.849 775.268 752.241 778.66 752.369 782.308L766.769 778.372ZM789.771 801.892L795.627 800.164V776.836C795.627 775.428 795.531 774.532 795.339 774.148C795.147 773.7 794.635 773.22 793.803 772.708L789.579 770.404L789.867 763.204C790.955 762.948 791.883 762.788 792.651 762.724C800.395 761.124 806.123 760.26 809.835 760.132C810.411 761.796 810.955 763.876 811.467 766.372C815.307 763.364 818.571 761.284 821.259 760.132H826.731C826.667 762.564 826.507 765.22 826.251 768.1C825.995 770.916 825.675 773.188 825.291 774.916C822.987 774.788 821.291 774.724 820.203 774.724C817.515 774.724 814.731 774.884 811.851 775.204V796.996C811.851 798.34 811.947 799.236 812.139 799.684C812.331 800.132 812.843 800.612 813.675 801.124L819.435 804.196L819.051 811.012H790.251L789.771 801.892Z" fill="white"/>
</g>
<g filter="url(#filter6_d_0_1)">
<path d="M506.195 886.796L513.311 884.846V847.494C513.311 845.803 513.181 844.698 512.921 844.178C512.661 843.593 511.979 843.072 510.874 842.617L506 839.789L506.292 831.012H559.222C559.677 837.839 559.905 844.503 559.905 851.004L552.691 851.492L545.771 842.91L531.052 842.52V858.416L551.814 856.661V871.68L531.052 869.437V885.138L547.233 884.846L554.739 876.264L561.952 876.751C561.692 883.578 561.204 890.242 560.49 896.744H506.682L506.195 886.796Z" fill="#FF0004"/>
<path d="M602.226 898.012C592.673 898.012 585.655 895.509 581.171 890.502C576.752 885.431 574.542 877.499 574.542 866.706V847.494C574.542 845.803 574.412 844.698 574.152 844.178C573.957 843.593 573.34 843.072 572.3 842.617L569.181 840.764L569.474 831.012H599.886L600.374 840.667L592.283 842.91V862.903C592.283 869.664 593.258 874.996 595.207 878.897C597.157 882.798 600.504 884.748 605.248 884.748C606.807 884.748 608.302 884.521 609.732 884.066C611.226 883.61 612.493 882.993 613.533 882.213C614.183 880.717 614.638 878.734 614.898 876.264C615.158 873.728 615.288 870.347 615.288 866.121V847.494C615.288 845.803 615.158 844.698 614.898 844.178C614.638 843.593 613.956 843.072 612.851 842.617L608.074 839.887L608.562 831.012H637.513L638 841.544L632.931 842.91V864.951C632.931 875.418 630.234 883.545 624.841 889.332C619.512 895.118 611.974 898.012 602.226 898.012Z" fill="#FF0004"/>
</g>
<g filter="url(#filter7_d_0_1)">
<path d="M470.348 660.072C473.796 664.572 476.751 664.558 477.736 664.572M477.736 664.572C478.042 664.577 482.309 664.572 482.66 664.572C488.57 664.572 488.57 664.572 489.063 664.572H477.736Z" stroke="#FF0000" stroke-width="5" shape-rendering="crispEdges"/>
</g>
<path d="M477.736 653.072C478.72 656.072 479.213 658.072 483.153 659.572C486.305 660.772 489.883 660.406 490.54 660.572" stroke="#FF0000" stroke-width="5"/>
<path d="M508.731 631.512C509.231 628.401 507.005 627.6 508.731 625.012C510.731 622.012 512.231 623.197 512.231 622.012" stroke="white" stroke-width="3"/>
<path d="M518.901 616.512C518.901 622.012 515.901 618.512 512.579 624.679C511.048 627.519 509.514 627.381 508.901 628.512" stroke="white" stroke-width="3"/>
<path d="M479.231 612.012C477.731 615.512 477.731 614.512 476.731 616.512C475.731 618.512 475.231 619.512 474.731 620.512C474.331 621.312 474.231 622.178 474.231 622.512" stroke="white" stroke-width="3"/>
<path d="M497.927 657.572C504.33 662.572 501.375 662.572 507.284 661.572C512.012 660.772 516.149 659.572 517.627 659.072" stroke="#FF0000" stroke-width="4"/>
<path d="M483.645 669.072C475.766 672.072 478.72 670.572 472.318 673.572M472.318 673.572C467.159 675.99 467.229 676.906 466.901 677.072L472.318 673.572Z" stroke="#FF0000" stroke-width="5"/>
<path d="M486.6 668.072C482.168 676.072 481.183 669.572 479.213 680.572M479.213 680.572C477.637 689.372 476.586 692.906 476.258 693.572L479.213 680.572Z" stroke="#FF0000" stroke-width="5"/>
<g filter="url(#filter8_d_0_1)">
<path d="M485.615 674.072C486.108 679.072 483.537 681.572 488.078 681.572M488.078 681.572C491.033 681.572 490.54 682.572 490.54 685.572L488.078 681.572Z" stroke="#FF0000" stroke-width="3" shape-rendering="crispEdges"/>
</g>
<path d="M481.401 603.512C481.401 605.421 481.653 609.603 479.401 611.512C477.149 613.421 478.156 613.375 477.405 614.648C476.654 615.921 475.153 617.83 474.402 618.466C473.802 618.975 473.151 624.375 472.901 625.012" stroke="white" stroke-width="3"/>
<rect x="40.7024" y="4.51416" width="59.375" height="30" rx="3" fill="white"/>
<rect x="41.2024" y="5.01416" width="58.375" height="29" rx="2.5" stroke="black" stroke-opacity="0.2"/>
<path d="M52.0461 16.5142C51.9993 16.1183 51.8092 15.811 51.4758 15.5923C51.1425 15.3735 50.7336 15.2642 50.2493 15.2642C49.8951 15.2642 49.5852 15.3215 49.3196 15.436C49.0566 15.5506 48.8508 15.7082 48.7024 15.9087C48.5566 16.1092 48.4836 16.3371 48.4836 16.5923C48.4836 16.8058 48.5344 16.9894 48.636 17.1431C48.7402 17.2941 48.873 17.4204 49.0344 17.522C49.1959 17.6209 49.3652 17.703 49.5422 17.7681C49.7193 17.8306 49.8821 17.8813 50.0305 17.9204L50.843 18.1392C51.0514 18.1938 51.2831 18.2694 51.5383 18.3657C51.7961 18.4621 52.0422 18.5936 52.2766 18.7603C52.5136 18.9243 52.7089 19.1353 52.8625 19.3931C53.0162 19.6509 53.093 19.9673 53.093 20.3423C53.093 20.7746 52.9797 21.1652 52.7532 21.5142C52.5292 21.8631 52.2011 22.1405 51.7688 22.3462C51.3391 22.5519 50.817 22.6548 50.2024 22.6548C49.6295 22.6548 49.1334 22.5623 48.7141 22.3774C48.2974 22.1925 47.9693 21.9347 47.7297 21.604C47.4928 21.2733 47.3586 20.8892 47.3274 20.4517H48.3274C48.3534 20.7537 48.455 21.0037 48.6321 21.2017C48.8118 21.397 49.0383 21.5428 49.3118 21.6392C49.5878 21.7329 49.8847 21.7798 50.2024 21.7798C50.5722 21.7798 50.9042 21.7199 51.1985 21.6001C51.4928 21.4777 51.7258 21.3084 51.8977 21.0923C52.0696 20.8735 52.1555 20.6183 52.1555 20.3267C52.1555 20.061 52.0813 19.8449 51.9329 19.6782C51.7844 19.5116 51.5891 19.3761 51.3469 19.272C51.1047 19.1678 50.843 19.0767 50.5618 18.9985L49.5774 18.7173C48.9524 18.5376 48.4576 18.2811 48.093 17.9478C47.7284 17.6144 47.5461 17.1782 47.5461 16.6392C47.5461 16.1912 47.6672 15.8006 47.9094 15.4673C48.1542 15.1313 48.4823 14.8709 48.8938 14.686C49.3079 14.4985 49.7701 14.4048 50.2805 14.4048C50.7961 14.4048 51.2545 14.4972 51.6555 14.6821C52.0566 14.8644 52.3743 15.1144 52.6086 15.4321C52.8456 15.7498 52.9706 16.1105 52.9836 16.5142H52.0461ZM57.0764 22.6392C56.4983 22.6392 55.9996 22.5116 55.5803 22.2563C55.1637 21.9985 54.842 21.6392 54.6155 21.1782C54.3915 20.7147 54.2795 20.1756 54.2795 19.561C54.2795 18.9465 54.3915 18.4048 54.6155 17.936C54.842 17.4647 55.1571 17.0975 55.5608 16.8345C55.967 16.5688 56.441 16.436 56.9827 16.436C57.2952 16.436 57.6038 16.4881 57.9084 16.5923C58.2131 16.6965 58.4905 16.8657 58.7405 17.1001C58.9905 17.3319 59.1897 17.6392 59.3381 18.022C59.4866 18.4048 59.5608 18.8761 59.5608 19.436V19.8267H54.9358V19.0298H58.6233C58.6233 18.6912 58.5556 18.3892 58.4202 18.1235C58.2874 17.8579 58.0972 17.6483 57.8499 17.4946C57.6051 17.341 57.316 17.2642 56.9827 17.2642C56.6155 17.2642 56.2978 17.3553 56.0295 17.5376C55.7639 17.7173 55.5595 17.9517 55.4163 18.2407C55.273 18.5298 55.2014 18.8397 55.2014 19.1704V19.7017C55.2014 20.1548 55.2795 20.5389 55.4358 20.854C55.5946 21.1665 55.8147 21.4048 56.0959 21.5688C56.3772 21.7303 56.704 21.811 57.0764 21.811C57.3186 21.811 57.5374 21.7772 57.7327 21.7095C57.9306 21.6392 58.1012 21.535 58.2444 21.397C58.3876 21.2563 58.4983 21.0819 58.5764 20.8735L59.467 21.1235C59.3733 21.4256 59.2157 21.6912 58.9944 21.9204C58.773 22.147 58.4996 22.3241 58.1741 22.4517C57.8486 22.5767 57.4827 22.6392 57.0764 22.6392ZM63.4006 22.6392C62.8381 22.6392 62.3538 22.5063 61.9475 22.2407C61.5413 21.9751 61.2288 21.6092 61.01 21.1431C60.7913 20.6769 60.6819 20.1444 60.6819 19.5454C60.6819 18.936 60.7939 18.3983 61.0178 17.9321C61.2444 17.4634 61.5595 17.0975 61.9631 16.8345C62.3694 16.5688 62.8433 16.436 63.385 16.436C63.8069 16.436 64.1871 16.5142 64.5256 16.6704C64.8642 16.8267 65.1415 17.0454 65.3577 17.3267C65.5738 17.6079 65.7079 17.936 65.76 18.311H64.8381C64.7678 18.0376 64.6116 17.7954 64.3694 17.5845C64.1298 17.3709 63.8069 17.2642 63.4006 17.2642C63.0413 17.2642 62.7262 17.3579 62.4553 17.5454C62.1871 17.7303 61.9775 17.992 61.8264 18.3306C61.678 18.6665 61.6038 19.061 61.6038 19.5142C61.6038 19.9777 61.6767 20.3813 61.8225 20.7251C61.9709 21.0688 62.1793 21.3358 62.4475 21.5259C62.7183 21.716 63.0361 21.811 63.4006 21.811C63.6402 21.811 63.8577 21.7694 64.053 21.686C64.2483 21.6027 64.4137 21.4829 64.5491 21.3267C64.6845 21.1704 64.7808 20.9829 64.8381 20.7642H65.76C65.7079 21.1183 65.579 21.4373 65.3733 21.7212C65.1702 22.0024 64.9006 22.2264 64.5647 22.3931C64.2314 22.5571 63.8433 22.6392 63.4006 22.6392ZM69.717 16.5142V17.2954H66.6077V16.5142H69.717ZM67.5139 15.0767H68.4358V20.7954C68.4358 21.0558 68.4736 21.2511 68.5491 21.3813C68.6272 21.509 68.7262 21.5949 68.8459 21.6392C68.9683 21.6808 69.0972 21.7017 69.2327 21.7017C69.3342 21.7017 69.4176 21.6965 69.4827 21.686C69.5478 21.673 69.5999 21.6626 69.6389 21.6548L69.8264 22.4829C69.7639 22.5063 69.6767 22.5298 69.5647 22.5532C69.4527 22.5793 69.3108 22.5923 69.1389 22.5923C68.8785 22.5923 68.6233 22.5363 68.3733 22.4243C68.1259 22.3123 67.9202 22.1418 67.7561 21.9126C67.5946 21.6834 67.5139 21.3944 67.5139 21.0454V15.0767ZM71.1038 22.5142V16.5142H72.0256V22.5142H71.1038ZM71.5725 15.5142C71.3928 15.5142 71.2379 15.453 71.1077 15.3306C70.9801 15.2082 70.9163 15.061 70.9163 14.8892C70.9163 14.7173 70.9801 14.5701 71.1077 14.4478C71.2379 14.3254 71.3928 14.2642 71.5725 14.2642C71.7522 14.2642 71.9058 14.3254 72.0334 14.4478C72.1637 14.5701 72.2288 14.7173 72.2288 14.8892C72.2288 15.061 72.1637 15.2082 72.0334 15.3306C71.9058 15.453 71.7522 15.5142 71.5725 15.5142ZM76.1516 22.6392C75.6099 22.6392 75.1347 22.5103 74.7258 22.2524C74.3196 21.9946 74.0019 21.634 73.7727 21.1704C73.5461 20.7069 73.4329 20.1652 73.4329 19.5454C73.4329 18.9204 73.5461 18.3748 73.7727 17.9087C74.0019 17.4425 74.3196 17.0806 74.7258 16.8228C75.1347 16.5649 75.6099 16.436 76.1516 16.436C76.6933 16.436 77.1672 16.5649 77.5735 16.8228C77.9823 17.0806 78.3 17.4425 78.5266 17.9087C78.7558 18.3748 78.8704 18.9204 78.8704 19.5454C78.8704 20.1652 78.7558 20.7069 78.5266 21.1704C78.3 21.634 77.9823 21.9946 77.5735 22.2524C77.1672 22.5103 76.6933 22.6392 76.1516 22.6392ZM76.1516 21.811C76.5631 21.811 76.9016 21.7056 77.1672 21.4946C77.4329 21.2837 77.6295 21.0063 77.7571 20.6626C77.8847 20.3188 77.9485 19.9465 77.9485 19.5454C77.9485 19.1444 77.8847 18.7707 77.7571 18.4243C77.6295 18.078 77.4329 17.798 77.1672 17.5845C76.9016 17.3709 76.5631 17.2642 76.1516 17.2642C75.7402 17.2642 75.4016 17.3709 75.136 17.5845C74.8704 17.798 74.6737 18.078 74.5461 18.4243C74.4185 18.7707 74.3547 19.1444 74.3547 19.5454C74.3547 19.9465 74.4185 20.3188 74.5461 20.6626C74.6737 21.0063 74.8704 21.2837 75.136 21.4946C75.4016 21.7056 75.7402 21.811 76.1516 21.811ZM81.1995 18.9048V22.5142H80.2776V16.5142H81.1682V17.4517H81.2463C81.387 17.147 81.6005 16.9022 81.887 16.7173C82.1734 16.5298 82.5432 16.436 82.9963 16.436C83.4026 16.436 83.7581 16.5194 84.0627 16.686C84.3674 16.8501 84.6044 17.1001 84.7737 17.436C84.943 17.7694 85.0276 18.1912 85.0276 18.7017V22.5142H84.1057V18.7642C84.1057 18.2928 83.9833 17.9256 83.7385 17.6626C83.4937 17.397 83.1578 17.2642 82.7307 17.2642C82.4364 17.2642 82.1734 17.328 81.9417 17.4556C81.7125 17.5832 81.5315 17.7694 81.3987 18.0142C81.2659 18.259 81.1995 18.5558 81.1995 18.9048ZM92.6028 14.5142V22.5142H91.634V15.5298H91.5872L89.634 16.8267V15.8423L91.634 14.5142H92.6028Z" fill="black"/>
<defs>
<filter id="filter0_d_0_1" x="486.205" y="660.778" width="44.4434" height="28.0248" filterUnits="userSpaceOnUse" color-interpolation-filters="sRGB">
<feFlood flood-opacity="0" result="BackgroundImageFix"/>
<feColorMatrix in="SourceAlpha" type="matrix" values="0 0 0 0 0 0 0 0 0 0 0 0 0 0 0 0 0 0 127 0" result="hardAlpha"/>
<feOffset dy="4"/>
<feGaussianBlur stdDeviation="2.5"/>
<feComposite in2="hardAlpha" operator="out"/>
<feColorMatrix type="matrix" values="0 0 0 0 0 0 0 0 0 0 0 0 0 0 0 0 0 0 0.25 0"/>
<feBlend mode="normal" in2="BackgroundImageFix" result="effect1_dropShadow_0_1"/>
<feBlend mode="normal" in="SourceGraphic" in2="effect1_dropShadow_0_1" result="shape"/>
</filter>
<filter id="filter1_d_0_1" x="490.741" y="665.435" width="41.2357" height="34.7316" filterUnits="userSpaceOnUse" color-interpolation-filters="sRGB">
<feFlood flood-opacity="0" result="BackgroundImageFix"/>
<feColorMatrix in="SourceAlpha" type="matrix" values="0 0 0 0 0 0 0 0 0 0 0 0 0 0 0 0 0 0 127 0" result="hardAlpha"/>
<feOffset/>
<feComposite in2="hardAlpha" operator="out"/>
<feColorMatrix type="matrix" values="0 0 0 0 0 0 0 0 0 0 0 0 0 0 0 0 0 0 0.25 0"/>
<feBlend mode="normal" in2="BackgroundImageFix" result="effect1_dropShadow_0_1"/>
<feBlend mode="normal" in="SourceGraphic" in2="effect1_dropShadow_0_1" result="shape"/>
</filter>
<filter id="filter2_d_0_1" x="500.5" y="264.511" width="243.006" height="272.459" filterUnits="userSpaceOnUse" color-interpolation-filters="sRGB">
<feFlood flood-opacity="0" result="BackgroundImageFix"/>
<feColorMatrix in="SourceAlpha" type="matrix" values="0 0 0 0 0 0 0 0 0 0 0 0 0 0 0 0 0 0 127 0" result="hardAlpha"/>
<feOffset dy="10"/>
<feGaussianBlur stdDeviation="2.5"/>
<feComposite in2="hardAlpha" operator="out"/>
<feColorMatrix type="matrix" values="0 0 0 0 0 0 0 0 0 0 0 0 0 0 0 0 0 0 0.25 0"/>
<feBlend mode="plus-darker" in2="BackgroundImageFix" result="effect1_dropShadow_0_1"/>
<feBlend mode="normal" in="SourceGraphic" in2="effect1_dropShadow_0_1" result="shape"/>
</filter>
<filter id="filter3_d_0_1" x="470.003" y="496.98" width="54.1541" height="137.738" filterUnits="userSpaceOnUse" color-interpolation-filters="sRGB">
<feFlood flood-opacity="0" result="BackgroundImageFix"/>
<feColorMatrix in="SourceAlpha" type="matrix" values="0 0 0 0 0 0 0 0 0 0 0 0 0 0 0 0 0 0 127 0" result="hardAlpha"/>
<feOffset dy="10"/>
<feGaussianBlur stdDeviation="2.5"/>
<feComposite in2="hardAlpha" operator="out"/>
<feColorMatrix type="matrix" values="0 0 0 0 0 0 0 0 0 0 0 0 0 0 0 0 0 0 0.25 0"/>
<feBlend mode="plus-darker" in2="BackgroundImageFix" result="effect1_dropShadow_0_1"/>
<feBlend mode="normal" in="SourceGraphic" in2="effect1_dropShadow_0_1" result="shape"/>
</filter>
<filter id="filter4_d_0_1" x="571" y="640.012" width="140.801" height="120.404" filterUnits="userSpaceOnUse" color-interpolation-filters="sRGB">
<feFlood flood-opacity="0" result="BackgroundImageFix"/>
<feColorMatrix in="SourceAlpha" type="matrix" values="0 0 0 0 0 0 0 0 0 0 0 0 0 0 0 0 0 0 127 0" result="hardAlpha"/>
<feOffset dy="10"/>
<feGaussianBlur stdDeviation="2"/>
<feComposite in2="hardAlpha" operator="out"/>
<feColorMatrix type="matrix" values="0 0 0 0 0 0 0 0 0 0 0 0 0 0 0 0 0 0 0.25 0"/>
<feBlend mode="plus-darker" in2="BackgroundImageFix" result="effect1_dropShadow_0_1"/>
<feBlend mode="normal" in="SourceGraphic" in2="effect1_dropShadow_0_1" result="shape"/>
</filter>
<filter id="filter5_d_0_1" x="314.634" y="737.572" width="516.096" height="88.688" filterUnits="userSpaceOnUse" color-interpolation-filters="sRGB">
<feFlood flood-opacity="0" result="BackgroundImageFix"/>
<feColorMatrix in="SourceAlpha" type="matrix" values="0 0 0 0 0 0 0 0 0 0 0 0 0 0 0 0 0 0 127 0" result="hardAlpha"/>
<feOffset dy="10"/>
<feGaussianBlur stdDeviation="2"/>
<feComposite in2="hardAlpha" operator="out"/>
<feColorMatrix type="matrix" values="0 0 0 0 0 0 0 0 0 0 0 0 0 0 0 0 0 0 0.25 0"/>
<feBlend mode="plus-darker" in2="BackgroundImageFix" result="effect1_dropShadow_0_1"/>
<feBlend mode="normal" in="SourceGraphic" in2="effect1_dropShadow_0_1" result="shape"/>
</filter>
<filter id="filter6_d_0_1" x="502" y="831.012" width="140" height="81" filterUnits="userSpaceOnUse" color-interpolation-filters="sRGB">
<feFlood flood-opacity="0" result="BackgroundImageFix"/>
<feColorMatrix in="SourceAlpha" type="matrix" values="0 0 0 0 0 0 0 0 0 0 0 0 0 0 0 0 0 0 127 0" result="hardAlpha"/>
<feOffset dy="10"/>
<feGaussianBlur stdDeviation="2"/>
<feComposite in2="hardAlpha" operator="out"/>
<feColorMatrix type="matrix" values="0 0 0 0 0 0 0 0 0 0 0 0 0 0 0 0 0 0 0.25 0"/>
<feBlend mode="plus-darker" in2="BackgroundImageFix" result="effect1_dropShadow_0_1"/>
<feBlend mode="normal" in="SourceGraphic" in2="effect1_dropShadow_0_1" result="shape"/>
</filter>
<filter id="filter7_d_0_1" x="464.364" y="658.552" width="28.6989" height="16.5224" filterUnits="userSpaceOnUse" color-interpolation-filters="sRGB">
<feFlood flood-opacity="0" result="BackgroundImageFix"/>
<feColorMatrix in="SourceAlpha" type="matrix" values="0 0 0 0 0 0 0 0 0 0 0 0 0 0 0 0 0 0 127 0" result="hardAlpha"/>
<feOffset dy="4"/>
<feGaussianBlur stdDeviation="2"/>
<feComposite in2="hardAlpha" operator="out"/>
<feColorMatrix type="matrix" values="0 0 0 0 0 0 0 0 0 0 0 0 0 0 0 0 0 0 0.25 0"/>
<feBlend mode="normal" in2="BackgroundImageFix" result="effect1_dropShadow_0_1"/>
<feBlend mode="normal" in="SourceGraphic" in2="effect1_dropShadow_0_1" result="shape"/>
</filter>
<filter id="filter8_d_0_1" x="479.828" y="673.925" width="16.2427" height="24.945" filterUnits="userSpaceOnUse" color-interpolation-filters="sRGB">
<feFlood flood-opacity="0" result="BackgroundImageFix"/>
<feColorMatrix in="SourceAlpha" type="matrix" values="0 0 0 0 0 0 0 0 0 0 0 0 0 0 0 0 0 0 127 0" result="hardAlpha"/>
<feOffset dy="4"/>
<feGaussianBlur stdDeviation="2"/>
<feComposite in2="hardAlpha" operator="out"/>
<feColorMatrix type="matrix" values="0 0 0 0 0 0 0 0 0 0 0 0 0 0 0 0 0 0 0.25 0"/>
<feBlend mode="normal" in2="BackgroundImageFix" result="effect1_dropShadow_0_1"/>
<feBlend mode="normal" in="SourceGraphic" in2="effect1_dropShadow_0_1" result="shape"/>
</filter>
</defs>
</svg>
