<svg width="100" height="100" viewBox="0 0 100 100" fill="none" xmlns="http://www.w3.org/2000/svg">
<path d="M50 100C77.6142 100 100 77.6142 100 50C100 22.3858 77.6142 0 50 0C22.3858 0 0 22.3858 0 50C0 77.6142 22.3858 100 50 100Z" fill="#1F1F1F"/>
<path d="M50 97C75.9574 97 97 75.9574 97 50C97 24.0426 75.9574 3 50 3C24.0426 3 3 24.0426 3 50C3 75.9574 24.0426 97 50 97Z" fill="#5BAD32"/>
<path d="M50 96C75.4051 96 96 75.4051 96 50C96 24.5949 75.4051 4 50 4C24.5949 4 4 24.5949 4 50C4 75.4051 24.5949 96 50 96Z" fill="#1F1F1F"/>
<path d="M27.2979 60.8592C25.3961 62.2442 23.5458 63.5593 21.7196 64.9349C20.9812 65.4911 20.4293 65.4269 19.9521 64.4789C20.3043 63.82 20.8551 63.5599 21.3392 63.2084C25.1067 60.4732 28.8822 57.7589 32.6561 55.0407C33.7137 54.279 33.7587 54.0778 33.1304 52.7869C33.0321 52.5849 32.9385 52.3768 32.8266 52.1889C30.8333 48.8439 31.9733 45.6648 34.4194 43.6613C36.4441 42.003 38.6622 41.2916 40.9401 40.8445C44.4086 40.1638 47.6674 40.8487 50.7361 42.7338C51.2849 43.071 51.7103 42.8378 52.1012 42.3817C52.4959 41.9213 52.151 41.4688 52.0236 41.0509C51.7292 40.0851 51.0375 39.687 50.4258 39.1752C49.4287 38.341 49.4118 37.5503 50.358 36.4798C51.6554 35.0119 53.099 34.9518 54.3408 36.3081C54.5216 36.5056 54.6512 36.8086 54.9911 36.824C55.5646 35.769 56.0695 34.5952 56.7837 33.6257C57.0497 33.2646 56.9472 32.8448 56.89 32.4502C56.7394 31.4131 56.5424 30.3892 56.4253 29.3433C55.4953 21.0401 59.7162 14.5355 65.8218 12.7349C68.1884 12.037 70.4652 12.0182 72.5895 13.4953C74.88 15.088 75.811 17.8004 75.931 21.1548C76.018 23.5616 75.571 25.915 75.155 28.2695C75.048 28.8755 75.007 29.4966 74.91 30.1058C74.755 31.0862 75.006 31.7873 75.486 32.5147C77.553 35.6491 78.631 39.2374 77.697 43.6521C77.465 44.7468 77.02 45.7276 76.661 46.7017C76.727 47.2557 77.262 47.2074 77.278 47.8005C77.193 48.3304 76.78 48.4668 76.465 48.7019C72.9981 51.2839 69.5316 53.8666 66.0521 56.4154C56.95 63.0829 47.8416 69.7341 38.7348 76.3893C38.3145 76.6965 37.8846 77 37.4004 76.7723C37.1475 76.6533 36.8222 76.5902 36.7898 76.1543C36.7547 75.6809 37.0901 75.5728 37.3362 75.3955C39.5164 73.8246 41.699 72.2597 43.8758 70.6798C51.2991 65.2923 58.7204 59.8996 66.1413 54.506C66.2419 54.4329 66.3276 54.321 66.4775 54.1694C65.836 53.976 65.2997 54.0935 64.7831 54.4685C60.571 57.5254 56.3222 60.4927 52.1693 63.6942C50.7595 64.7811 49.6224 66.5768 48.0151 67.2221C45.8112 68.1071 43.8591 69.6961 41.8577 71.1641C40.0208 72.5113 38.1713 73.8261 36.34 75.1873C35.6154 75.7259 35.1166 75.4661 34.5625 74.5352C37.1419 72.6636 39.6529 70.8417 42.2668 68.9451C41.5649 68.6774 41.0263 68.8462 40.4817 69.248C38.5635 70.6631 36.6378 72.0593 34.7139 73.4599C33.5249 74.3255 32.6303 74.0744 31.6859 72.4859C33.4619 70.8458 35.4608 69.7692 37.305 68.1753C36.9299 67.6556 36.6127 67.9771 36.2946 68.2117C34.6821 69.401 33.0614 70.5701 31.4596 71.7862C30.8331 72.2619 30.3441 72.2635 29.8555 71.2727C31.5316 69.5937 33.5195 68.6803 35.2325 67.1315C34.7883 66.583 34.7853 66.5752 34.1893 67.0091C32.6278 68.1458 31.064 69.2769 29.5117 70.4371C28.8048 70.9654 28.2872 70.7812 27.7596 69.8169C29.7191 68.3884 31.6196 67.0029 33.5167 65.6199C33.3108 64.8905 33.022 65.0388 32.6741 65.2972C30.9813 66.5544 29.2672 67.7589 27.5907 69.0552C26.8121 69.6572 26.2547 69.572 25.7917 68.6667C25.9268 68.1505 26.2526 68.0441 26.5271 67.8469C28.2334 66.6215 29.942 65.4021 31.6406 64.1568C31.882 63.9799 32.3732 63.868 32.1464 63.3144C31.9387 62.8075 31.5945 63.2401 31.3384 63.4248C29.4385 64.7949 27.537 66.1614 25.6529 67.5719C24.9482 68.0995 24.3737 68.1988 23.8569 67.1403C26.3599 64.9709 29.1053 63.4504 31.495 61.1201C30.6559 61.0383 30.057 61.7052 29.4106 62.1565C27.498 63.4918 25.6109 64.8975 23.7226 66.2979C22.9821 66.8472 22.3813 66.8001 21.8866 65.9589C22.0573 65.3555 22.4323 65.2662 22.7262 65.0531C25.4619 63.0694 28.2033 61.1008 30.9389 59.1167C31.38 58.7968 31.8558 58.4937 32.0141 57.4738C30.3877 58.6407 28.8735 59.7272 27.2979 60.8592ZM61.7355 52.372C62.1557 52.4844 62.5715 52.6276 62.9969 52.7045C66.8274 53.3967 70.524 52.7953 73.7728 49.3881C78.72 44.1991 77.971 36.1292 73.6982 31.9618C73.3874 34.5244 71.997 35.7872 70.3731 36.547C67.9116 37.6989 65.4123 37.8311 62.9291 37.0979C61.7122 36.7385 60.6713 35.9314 59.5933 34.9488C59.6456 35.3817 59.68 35.62 59.7025 35.8612C59.7643 36.5239 60.0597 37.2979 59.4092 37.7436C58.744 38.1994 58.2267 37.6272 57.7349 37.1693C57.4997 36.9504 57.4868 36.5433 57.404 36.1979C57.3096 35.8042 57.4127 35.2745 57.0398 35.0578C56.7139 35.2725 56.5782 35.666 56.4068 36.0164C55.4223 38.0282 55.477 38.3019 57.1888 38.8809C58.052 39.1729 58.5225 39.8753 58.8144 40.9253C59.1501 42.1334 59.1628 43.3838 59.081 44.6734C59.0246 45.5624 58.8479 46.3814 58.4621 47.1373C58.0291 47.9858 57.3816 48.1558 56.531 48.0936C57.9389 50.3811 59.7037 51.4763 61.7355 52.372ZM63.6439 17.6079C59.5863 20.4429 58.1126 26.0788 59.1626 30.4605C59.2465 30.4069 59.3617 30.3831 59.4055 30.298C60.4952 28.1779 62.1177 27.3091 63.8629 26.7409C64.31 26.5953 64.6206 26.3312 64.9038 25.7837C65.7001 24.2449 67.3871 24.0627 68.0671 25.4935C68.4355 26.2687 68.9033 26.539 69.512 26.7292C70.0453 26.8958 70.5534 27.1773 71.074 27.4032C71.6329 27.6457 72.0522 28.2934 72.7628 28.3803C73.0275 26.5515 73.3718 24.8122 73.515 23.0596C73.8845 18.5377 71.4398 15.3203 68.0868 15.8119C66.5858 16.032 65.1315 16.5321 63.6439 17.6079ZM45.2444 46.1342C44.9642 46.8821 44.4713 47.2162 43.9025 47.4229C41.9238 48.1421 40.7673 47.4022 40.0026 44.9065C39.8379 44.3691 39.7077 43.8351 39.0982 44.0701C37.6876 44.6139 36.3647 45.4071 35.257 46.7473C33.7421 48.5801 33.7901 50.64 35.3652 52.1395C35.7788 52.5332 36.2246 52.8927 36.6943 53.1598C39.5507 54.7841 42.5791 54.8897 45.6837 54.1287C47.2701 53.7399 48.7722 52.9898 50.0823 51.6113C51.5625 50.0538 51.7155 48.1006 50.4597 46.4286C49.7945 45.543 48.9893 44.9058 48.1045 44.4409C46.2153 43.4481 46.215 43.4491 45.2444 46.1342ZM42.2143 55.9806C39.5337 55.9763 37.0144 55.1366 34.5578 53.7923C34.7747 60.203 37.1566 63.7033 41.2575 63.784C47.2633 63.9021 49.5794 61.3321 50.7393 53.185C48.0744 55.0574 45.2944 55.9385 42.2143 55.9806ZM64.8518 28.4652C64.6681 27.9465 64.4458 27.6886 63.9197 27.8773C63.1254 28.1623 62.3518 28.4774 61.6321 29.0357C60.8934 29.6087 60.2428 30.2952 60.1982 31.5219C60.1523 32.787 60.834 33.387 61.54 33.8681C63.2833 35.0563 65.193 35.3822 67.1792 35.0996C68.7349 34.8782 70.2749 34.4801 71.6044 33.1499C72.8292 31.9244 72.8724 30.2774 71.7103 29.1812C70.9897 28.5014 70.1712 28.1187 69.3079 27.8007C68.4376 27.4801 68.0346 28.0142 67.9394 29.0009C67.8285 30.1496 67.2691 30.4441 66.586 30.576C65.5955 30.7672 65.2192 30.2963 64.8518 28.4652ZM58.6469 23.2632C60.3787 17.6673 64.7723 14.7232 68.8064 14.7114C71.8837 14.7023 74.322 17.1414 74.298 21.8605C74.286 24.3243 73.8509 26.6915 73.4269 29.0765C73.2988 29.7973 73.3649 30.2657 74.014 30.3732C74.348 28.2377 74.705 26.1728 74.981 24.0951C75.105 23.1621 75.094 22.2015 75.096 21.2569C75.107 17.4795 73.5018 14.5559 70.7463 13.7531C67.8149 12.8992 64.9298 13.6304 62.2508 15.7227C59.2592 18.0591 57.4354 21.4312 57.1618 26.0535C56.9578 29.5015 57.8756 32.6409 58.2296 35.9346C58.2702 36.3128 58.4452 36.594 58.9539 36.5312C58.7249 34.8367 58.4645 33.1895 58.2856 31.5208C57.9984 28.8423 57.9249 26.1487 58.6469 23.2632ZM33.4779 62.7803C34.3034 63.603 35.2014 64.2651 36.1929 64.6975C39.8629 66.2979 43.6231 66.3146 47.4386 64.8025C49.0451 64.1658 50.6031 63.3114 51.7725 61.5351C53.016 59.6463 52.7184 57.3428 51.0916 56.2482C51.0656 56.2712 51.0239 56.2881 51.0161 56.3182C50.955 56.5522 50.8973 56.7878 50.8443 57.0248C50.3199 59.3706 49.4805 61.4389 47.869 62.8707C45.6112 64.8768 43.131 65.1568 40.648 64.8464C37.4109 64.4419 35.0529 62.4559 34.2871 58.0046C34.2173 57.5986 34.1925 57.1058 33.8689 56.8572C32.0148 58.4255 31.8344 60.6155 33.4779 62.7803ZM58.4205 42.1854C58.218 40.7416 57.6534 39.8093 56.4998 39.5257C55.7062 39.3306 55.0539 38.7242 54.4837 37.9796C54.1883 37.5939 53.8927 37.1821 53.4122 37.049C52.9489 37.7058 52.503 38.4066 51.8486 38.8553C52.9127 40.3419 53.2862 42.2077 53.8656 43.9208C54.4408 45.6213 55.2973 46.8456 56.7749 47.1841C57.4937 47.3488 57.9402 46.9978 58.1644 46.1247C58.48 44.8956 58.7284 43.6459 58.4205 42.1854ZM43.6405 41.6166C42.7718 41.5773 41.8979 41.5241 41.0869 42.1616C40.3653 42.7288 40.3324 43.3783 40.9945 43.9478C41.78 44.6235 42.6934 44.5791 43.5933 44.4199C44.3007 44.2947 45.2227 44.0921 45.2926 42.99C45.3618 41.8995 44.4541 41.8226 43.6405 41.6166ZM52.1567 49.0458C52.0847 49.4808 52.0126 49.9159 51.9349 50.3852C53.2914 48.5658 53.1007 46.0825 51.5185 44.6146C50.14 43.3357 48.5909 42.5432 46.9222 42.1108C46.6951 42.0519 46.4152 41.8561 46.1627 42.1771C46.3456 42.7687 46.7528 42.7578 47.0952 42.8719C48.1696 43.23 49.1867 43.7504 50.0891 44.5756C51.2155 45.6057 52.1098 46.8576 52.1567 49.0458ZM34.5558 44.8368C32.5547 46.7225 32.0922 48.8475 33.3235 50.7188C33.0973 48.3182 33.9596 46.6249 35.3631 45.2531C36.4313 44.209 37.6125 43.5338 38.8673 43.0893C39.2258 42.9622 39.6201 42.9262 39.7537 42.1668C37.917 42.6125 36.2091 43.3166 34.5558 44.8368ZM42.5917 67.6898C44.6963 67.607 46.6963 66.8695 48.6142 65.5875C44.0582 67.3469 39.5861 67.4965 35.2052 65.5305C37.4136 67.1731 39.8373 67.7961 42.5917 67.6898ZM61.2529 54.2113C58.8608 55.9398 56.4701 57.6719 54.0753 59.3935C53.658 59.6935 53.2619 59.9824 53.3429 60.8532C56.5411 58.53 59.6784 56.251 62.8824 53.9235C62.2401 53.3654 61.8099 53.7839 61.2529 54.2113ZM54.8114 56.0164C54.2579 56.5253 53.4852 56.6577 53.0776 57.6758C53.867 57.6967 59.1724 53.9553 60.0282 52.886C59.3013 52.5281 59.2962 52.5311 54.8114 56.0164ZM65.4536 27.7521C65.7782 28.5462 66.3149 28.7122 66.9365 28.4297C67.4382 28.2016 67.6401 27.6277 67.6653 26.9626C67.6947 26.1838 67.3453 25.7899 66.8449 25.5844C66.032 25.2506 65.3808 26.1603 65.4536 27.7521ZM65.5423 36.2702C63.8248 36.1602 62.1685 35.7704 60.6675 34.6719C62.6635 37.4911 70.3135 37.4898 72.3622 33.7625C70.2986 35.8647 68.0144 36.1233 65.5423 36.2702ZM51.9409 52.8331C51.7988 53.0985 51.6043 53.3471 51.7695 53.8055C53.4262 52.5924 55.0695 51.3893 56.7202 50.1806C56.503 49.5289 56.2469 49.5745 55.9239 49.8273C54.6427 50.8301 53.2623 51.58 51.9409 52.8331ZM54.9301 53.3548C53.9836 54.0567 52.9825 54.6377 52.071 55.6187C52.7389 55.8915 57.3094 52.7106 58.0449 51.5844C58.0118 51.4727 57.9786 51.3609 57.9454 51.2492C56.9815 51.9202 56.0177 52.5911 54.9301 53.3548ZM36.9984 69.2076C35.6075 70.2513 34.2166 71.295 32.8257 72.3388C32.8822 72.4856 32.9387 72.6325 32.9952 72.7793C34.9132 71.421 36.8312 70.0627 38.8643 68.6228C38.0742 68.0658 37.6356 68.8593 36.9984 69.2076ZM41.2772 45.8661C42.1937 46.965 44.0708 46.7278 44.4676 45.3785C43.6205 45.5635 42.7998 45.6857 41.9809 45.5744C41.7407 45.5418 41.4614 45.2105 41.2772 45.8661ZM55.1396 47.7737C54.4208 48.101 53.6468 48.3389 53.4127 49.7356C54.0347 49.2555 54.5505 48.8689 55.0569 48.4602C55.2326 48.3184 55.4938 48.1686 55.1396 47.7737ZM57.6697 58.7982C58.7314 58.0276 59.7931 57.257 60.8548 56.4863C60.8281 56.4183 60.8014 56.3503 60.7747 56.2823C59.3245 57.3288 57.8743 58.3753 56.2029 59.5813C56.878 59.4961 57.1789 59.074 57.6697 58.7982ZM55.6949 62.8953C54.7667 63.5827 53.8386 64.2701 52.9104 64.9576C54.2052 64.3521 55.3905 63.4748 56.4634 62.3161C56.2456 62.4815 56.0278 62.6469 55.6949 62.8953ZM50.869 37.5653C51.519 38.0197 51.9395 37.5228 52.4567 36.7968C51.7609 36.5901 51.3396 36.9864 50.869 37.5653ZM59.5191 54.5322C59.5058 54.4747 59.4972 54.4136 59.4756 54.3628C59.471 54.3519 59.416 54.3698 59.3899 54.389C58.68 54.9098 57.9708 55.4326 57.2615 55.9551C57.2858 56.0218 57.3101 56.0886 57.3345 56.1553C58.0395 55.6417 58.7445 55.1281 59.5191 54.5322Z" fill="#5BAD32"/>
<path d="M82.1 43.0506C83.096 43.7526 84.039 44.3983 84.967 45.0768C85.845 45.7187 86.214 46.7557 86.166 48.1095C86.105 49.8397 86.052 51.57 86.012 53.2996C85.981 54.6027 85.577 55.6696 84.709 56.3339C82.807 57.7902 80.877 59.1777 78.964 60.605C78.435 60.9991 77.905 60.925 77.438 60.6397C76.624 60.1426 75.922 60.4367 75.155 60.9999C69.5578 65.1057 63.9472 69.1755 58.3428 73.2615C55.7777 75.1316 53.2235 77.0304 50.6504 78.8793C49.7628 79.517 49.1046 80.352 48.8194 81.6499C48.6315 82.505 48.2128 83.093 47.6169 83.52C45.4899 85.043 43.3803 86.613 41.2478 88.122C39.6224 89.272 37.9677 89.304 36.4021 88.317C34.6213 87.195 32.8955 85.933 31.1433 84.737C30.5791 84.353 30.1765 83.799 30.0091 82.9595C29.7601 81.711 29.1655 80.9089 28.2916 80.3353C26.1446 78.9258 24.0295 77.4365 21.9162 75.9455C21.5461 75.6843 21.2528 75.6783 20.8892 75.9926C20.1153 76.6615 19.3736 76.592 18.6079 76.0384C17.092 74.9423 15.5577 73.8855 14.0095 72.8654C12.8828 72.1232 12.3592 70.9653 12.439 69.2504C12.51 67.7265 12.5221 66.2024 12.5661 64.6782C12.6117 63.1017 13.1343 61.9062 14.2341 61.1284C19.5381 57.3771 24.8372 53.613 30.1381 49.8535C30.2784 49.754 30.4172 49.6502 30.5596 49.557C30.7886 49.4069 31.0308 49.209 31.2026 49.6137C31.379 50.0294 31.2272 50.3134 30.931 50.5154C30.1397 51.0551 29.3409 51.5744 28.5558 52.1308C24.124 55.2717 19.6906 58.4086 15.2701 61.5794C14.5125 62.1228 13.5105 62.5267 13.474 63.9374C13.4398 65.2607 14.3896 65.4946 15.0692 65.9644C21.1659 70.1788 27.2692 74.3776 33.3638 78.5969C34.6499 79.4873 35.8604 80.5586 37.2704 81.1443C38.7233 81.7479 40.1578 81.5151 41.5254 80.5271C48.0895 75.7846 54.6412 71.0097 61.197 66.2456C68.7013 60.7924 76.205 55.3384 83.71 49.8852C83.793 49.8244 83.883 49.7773 83.964 49.7111C84.58 49.2087 85.33 48.8352 85.313 47.6432C85.297 46.5418 84.704 46.0615 84.06 45.6272C82.439 44.5326 80.826 43.4192 79.214 42.3033C78.843 42.0468 78.427 41.8037 78.673 40.7515C79.826 41.5243 80.933 42.2664 82.1 43.0506ZM25.8722 77.4292C26.8674 78.1151 27.8476 78.8393 28.8621 79.4759C29.8315 80.0843 30.4401 81.0722 30.7277 82.4141C30.854 83.003 31.0832 83.432 31.4767 83.702C33.3334 84.977 35.1597 86.334 37.0644 87.483C38.3016 88.229 39.6653 88.068 40.9415 87.168C42.9915 85.724 45.0213 84.225 47.0587 82.7465C47.4521 82.461 47.8811 82.1749 47.9981 81.5529C48.3827 79.5077 49.5432 78.4661 50.8357 77.5294C55.3866 74.2311 59.924 70.8974 64.4711 67.5892C68.2373 64.8492 72.0118 62.1308 75.778 59.3912C76.443 58.9079 77.06 58.6539 77.632 59.4672C77.95 59.9187 78.345 59.8648 78.74 59.5759C80.524 58.2723 82.308 56.9727 84.082 55.6442C84.558 55.2873 85.015 54.8024 85.108 54.0522C85.27 52.7556 85.288 51.453 85.243 50.2019C84.905 50.0626 84.734 50.3124 84.549 50.4472C79.838 53.8816 75.132 57.3314 70.4195 60.7625C60.9654 67.6456 51.5096 74.5246 42.0497 81.3925C39.9427 82.9222 37.8481 83.001 35.8091 81.5956C29.0043 76.9062 22.2046 72.2049 15.396 67.5247C14.7688 67.0936 14.1783 66.535 13.3516 66.3144C13.3229 67.3216 13.3409 68.2249 13.2615 69.1206C13.1443 70.4428 13.5214 71.2993 14.3834 71.8697C15.9572 72.9112 17.5079 74.0092 19.0721 75.0744C19.3899 75.2908 19.7137 75.5807 20.0999 75.1809C20.0075 74.019 20.3025 73.6886 21.1391 74.2162C22.7 75.2005 24.2174 76.2958 25.8722 77.4292Z" fill="#5BAD32"/>
<path d="M78.595 43.8231C78.527 43.6021 78.443 43.3875 78.398 43.1569C78.379 43.0595 78.443 42.9281 78.467 42.8214C78.779 42.5642 79.022 42.7718 79.258 42.9332C80.685 43.9061 82.109 44.8861 83.53 45.8717C83.69 45.9825 83.835 46.1319 83.975 46.2829C84.843 47.2181 84.83 48.1705 83.867 49.0809C82.331 50.5326 80.626 51.585 78.985 52.7828C66.8721 61.6289 54.741 70.4288 42.6189 79.2521C41.278 80.2281 39.9721 81.275 38.3814 81.0523C37.4333 80.9195 36.6173 80.4038 35.8131 79.849C29.0686 75.1963 22.3301 70.5295 15.5907 65.8647C15.3762 65.7162 15.1615 65.5622 14.965 65.3782C14.0046 64.4791 14.0232 63.3067 15.065 62.4245C15.9491 61.676 16.8771 61.0195 17.801 60.3638C21.9755 57.4013 26.1521 54.4444 30.3391 51.516C30.7106 51.2562 31.259 50.487 31.5358 51.1515C31.8441 51.8917 31.0514 52.0453 30.6983 52.3527C30.0351 52.9299 29.3299 53.4177 28.5346 54.0246C26.8809 55.167 25.3217 56.1926 23.7927 57.2982C22.4609 58.2612 21.0467 59.0178 19.7514 60.2659C18.2782 61.2372 16.8714 62.1867 15.4645 63.1362C15.4972 63.2227 15.5299 63.3093 15.5626 63.3958C16.9448 62.2505 18.5037 61.5732 19.882 60.224C21.0224 59.4898 22.1168 58.825 23.1636 58.0402C24.9549 56.6975 26.8483 55.6186 28.5604 54.073C29.5179 53.7326 30.3026 52.8719 31.2058 52.3702C31.5233 52.1938 31.9426 51.6041 32.1594 52.2578C32.3542 52.8452 31.8018 53.0425 31.4903 53.264C26.5038 56.8097 21.5125 60.3427 16.5227 63.8798C16.2746 64.0557 16.0307 64.2431 15.7029 64.4858C16.3892 65.3005 17.1805 65.714 17.9123 66.2214C24.1408 70.54 30.3879 74.8145 36.615 79.1362C38.2079 80.2417 39.7593 80.1589 41.402 78.9577C49.8969 72.746 58.3996 66.555 66.9048 60.3702C72.0909 56.599 77.286 52.8514 82.479 49.097C82.703 48.9349 82.943 48.8134 83.027 48.2526C82.008 47.5479 80.948 46.8173 79.89 46.0815C79.408 45.7459 78.907 45.4432 78.456 45.0456C78.088 44.7205 77.865 44.274 78.58 43.8952C80.227 45.222 81.877 46.2618 83.551 47.2462C81.965 45.949 80.35 44.7207 78.595 43.8231Z" fill="#5BAD32"/>
<path d="M47.7066 72.2197C45.1624 74.0662 42.6802 75.8686 40.1924 77.6564C39.9459 77.8336 39.6673 78.0036 39.4011 78.0319C39.0199 78.0724 38.6073 77.9115 38.4896 77.4131C38.3466 76.8072 38.827 76.6968 39.1134 76.4991C45.2326 72.2746 51.2574 67.8015 57.2999 63.375C63.9829 58.4793 70.6691 53.5919 77.351 48.6927C77.987 48.2263 78.573 47.974 79.215 49.1375C68.7596 56.9875 58.2296 64.4937 47.7066 72.2197Z" fill="#5BAD32"/>
<path d="M44.136 23.9128C43.8742 22.9634 43.8457 22.1285 43.7747 21.279C43.7229 20.6596 43.6685 20.0415 43.5477 19.3937C43.2981 18.0562 42.6829 16.9679 41.722 16.1052C41.4886 15.8956 41.2511 15.7026 41.0144 15.5082C40.788 15.3222 40.629 15.0917 40.6706 14.8094C40.7121 14.5276 40.888 14.527 41.1356 14.6936C42.8321 15.8351 44.0081 17.8157 44.3471 20.1126C44.4627 20.8961 44.4891 21.6405 44.5599 22.4043C44.6434 23.3057 44.7645 24.2114 45.2784 25.17C45.4343 25.4607 45.61 25.7199 45.8129 25.9552C46.2827 26.4997 46.3136 26.6107 46.1576 27.24C45.2026 26.3727 44.5242 25.2933 44.136 23.9128Z" fill="white"/>
<path d="M45.2407 27.5404C45.2795 27.9776 45.176 28.0674 44.8621 27.9118C43.3449 27.1597 42.1622 25.3093 41.9173 23.3194C41.818 22.5127 41.8507 21.7807 41.8458 21.027C41.8433 20.6305 41.827 20.2284 41.7668 19.8037C41.6533 19.0019 41.333 18.2874 40.7527 17.6816C40.5459 17.4657 40.3754 17.229 40.4606 16.9705C40.5494 16.701 40.7722 16.8861 40.9671 17.0743C41.7762 17.8555 42.2607 18.821 42.4667 19.9415C42.6244 20.7989 42.5835 21.5528 42.5842 22.3283C42.5845 22.7728 42.5934 23.2205 42.6552 23.6961C42.8158 24.9324 43.3419 25.8931 44.2722 26.634C44.4697 26.7913 44.6704 26.9286 44.8702 27.0688C45.0164 27.1714 45.1465 27.2944 45.2407 27.5404Z" fill="white"/>
<path d="M48.0449 32.4172C47.1441 31.4117 46.667 30.2909 46.511 29.0592C46.4171 28.3177 46.4324 27.6378 46.4723 26.9714C46.4994 26.5197 46.5176 26.0612 46.4643 25.5641C46.4007 24.9693 46.2177 24.3813 45.8264 23.8193C45.7689 23.7367 45.7169 23.6465 45.666 23.5572C45.517 23.2959 45.4621 23.0593 45.593 22.9223C45.7246 22.7847 45.8955 22.8967 46.0736 23.1339C46.8696 24.1936 47.2222 25.2924 47.2215 26.407C47.2211 27.0964 47.1852 27.7648 47.1784 28.4506C47.1757 28.7185 47.1933 29.0022 47.2291 29.2893C47.3807 30.5061 47.9063 31.4795 48.8229 32.255C48.9798 32.3877 49.1427 32.4911 49.2975 32.6306C49.5023 32.815 49.6467 33.0586 49.6098 33.3168C49.5753 33.5579 49.4108 33.5588 49.2079 33.4219C48.8155 33.1571 48.4331 32.8349 48.0449 32.4172Z" fill="white"/>
<path d="M47.809 22.0069C48.4007 23.0593 48.5404 24.0476 48.672 25.0235C48.811 26.0554 49.1514 26.9702 49.9601 27.7127C50.1671 27.9026 50.255 28.1535 50.199 28.37C50.1369 28.6102 49.9596 28.5764 49.7466 28.3853C49.0287 27.7412 48.517 26.9069 48.2047 25.9035C47.9979 25.2391 47.9376 24.6104 47.838 23.9736C47.6252 22.6129 47.0773 21.6649 46.0613 20.922C45.8919 20.7981 45.7199 20.6935 45.5523 20.5589C45.3648 20.4083 45.2349 20.1982 45.2509 19.9528C45.266 19.7207 45.3868 19.6424 45.5826 19.7471C46.4141 20.1919 47.1816 20.8423 47.809 22.0069Z" fill="white"/>
<path d="M42.9248 28.2527C42.3786 27.5447 42.0123 26.793 41.8032 25.9709C41.7327 25.6941 41.7383 25.4714 41.9479 25.4951C42.1399 25.5168 42.313 25.7223 42.3957 26.0048C42.7832 27.3288 43.5242 28.0923 44.4202 28.648C45.0464 29.0365 45.6675 29.4699 46.1805 30.301C46.6416 31.0482 46.8951 31.8096 46.9773 32.5816C47.0074 32.8646 46.9271 33.0284 46.6997 32.9454C46.4642 32.8595 46.3498 32.6023 46.2984 32.3204C46.189 31.72 46.0433 31.1318 45.6286 30.5772C45.3339 30.1832 45.009 29.9355 44.6766 29.7133C44.0851 29.318 43.489 28.9512 42.9248 28.2527Z" fill="white"/>
<path d="M50.4461 33.6175C50.4219 33.0579 50.3747 32.5159 50.2157 31.9353C49.9393 30.9262 49.4125 30.0938 48.7325 29.395C48.441 29.0954 48.1345 28.8348 47.8316 28.5726C47.4271 28.2224 47.3324 27.973 47.4469 27.5486C47.4809 27.4227 47.5496 27.4488 47.6492 27.524C49.7212 29.0864 51.0965 31.1259 51.1666 34.0675C51.1702 34.2173 51.1745 34.3682 51.1675 34.5113C51.1559 34.7481 51.0456 34.8326 50.8481 34.7338C50.6372 34.6283 50.502 34.4138 50.4693 34.1368C50.4493 33.9678 50.4538 33.8085 50.4461 33.6175Z" fill="white"/>
</svg>
