<svg width="150" height="117" viewBox="0 0 150 117" fill="none" xmlns="http://www.w3.org/2000/svg">
<rect width="150" height="117" fill="#F5F5F5"/>
<circle cx="76" cy="67" r="50" fill="#1F1F1F"/>
<circle cx="76" cy="67" r="47" fill="#5BAD32"/>
<circle cx="76" cy="67" r="46" fill="#1F1F1F"/>
<path d="M53.2979 77.8592C51.3961 79.2442 49.5458 80.5593 47.7196 81.9349C46.9812 82.4911 46.4293 82.4269 45.9521 81.4789C46.3043 80.82 46.8551 80.5599 47.3392 80.2084C51.1067 77.4732 54.8822 74.7589 58.6561 72.0407C59.7137 71.279 59.7587 71.0778 59.1304 69.7869C59.0321 69.5849 58.9385 69.3768 58.8266 69.1889C56.8333 65.8439 57.9733 62.6648 60.4194 60.6613C62.4441 59.003 64.6622 58.2916 66.9401 57.8445C70.4086 57.1638 73.6674 57.8487 76.7361 59.7338C77.2849 60.071 77.7103 59.8378 78.1012 59.3817C78.4959 58.9213 78.151 58.4688 78.0236 58.0509C77.7292 57.0851 77.0375 56.687 76.4258 56.1752C75.4287 55.341 75.4118 54.5503 76.358 53.4798C77.6554 52.0119 79.099 51.9518 80.3408 53.3081C80.5216 53.5056 80.6512 53.8086 80.9911 53.824C81.5646 52.769 82.0695 51.5952 82.7837 50.6257C83.0497 50.2646 82.9472 49.8448 82.89 49.4502C82.7394 48.4131 82.5424 47.3892 82.4253 46.3433C81.4953 38.0401 85.7162 31.5355 91.8218 29.7349C94.1884 29.037 96.4652 29.0182 98.5895 30.4953C100.88 32.088 101.811 34.8004 101.931 38.1548C102.018 40.5616 101.571 42.915 101.155 45.2695C101.048 45.8755 101.007 46.4966 100.91 47.1058C100.755 48.0862 101.006 48.7873 101.486 49.5147C103.553 52.6491 104.631 56.2374 103.697 60.6521C103.465 61.7468 103.02 62.7276 102.661 63.7017C102.727 64.2557 103.262 64.2074 103.278 64.8005C103.193 65.3304 102.78 65.4668 102.465 65.7019C98.9981 68.2839 95.5316 70.8666 92.0521 73.4154C82.95 80.0829 73.8416 86.7341 64.7348 93.3893C64.3145 93.6965 63.8846 94 63.4004 93.7723C63.1475 93.6533 62.8222 93.5902 62.7898 93.1543C62.7547 92.6809 63.0901 92.5728 63.3362 92.3955C65.5164 90.8246 67.699 89.2597 69.8758 87.6798C77.2991 82.2923 84.7204 76.8996 92.1413 71.506C92.2419 71.4329 92.3276 71.321 92.4775 71.1694C91.836 70.976 91.2997 71.0935 90.7831 71.4685C86.571 74.5254 82.3222 77.4927 78.1693 80.6942C76.7595 81.7811 75.6224 83.5768 74.0151 84.2221C71.8112 85.1071 69.8591 86.6961 67.8577 88.1641C66.0208 89.5113 64.1713 90.8261 62.34 92.1873C61.6154 92.7259 61.1166 92.4661 60.5625 91.5352C63.1419 89.6636 65.6529 87.8417 68.2668 85.9451C67.5649 85.6774 67.0263 85.8462 66.4817 86.248C64.5635 87.6631 62.6378 89.0593 60.7139 90.4599C59.5249 91.3255 58.6303 91.0744 57.6859 89.4859C59.4619 87.8458 61.4608 86.7692 63.305 85.1753C62.9299 84.6556 62.6127 84.9771 62.2946 85.2117C60.6821 86.401 59.0614 87.5701 57.4596 88.7862C56.8331 89.2619 56.3441 89.2635 55.8555 88.2727C57.5316 86.5937 59.5195 85.6803 61.2325 84.1315C60.7883 83.583 60.7853 83.5752 60.1893 84.0091C58.6278 85.1458 57.064 86.2769 55.5117 87.4371C54.8048 87.9654 54.2872 87.7812 53.7596 86.8169C55.7191 85.3884 57.6196 84.0029 59.5167 82.6199C59.3108 81.8905 59.022 82.0388 58.6741 82.2972C56.9813 83.5544 55.2672 84.7589 53.5907 86.0552C52.8121 86.6572 52.2547 86.572 51.7917 85.6667C51.9268 85.1505 52.2526 85.0441 52.5271 84.8469C54.2334 83.6215 55.942 82.4021 57.6406 81.1568C57.882 80.9799 58.3732 80.868 58.1464 80.3144C57.9387 79.8075 57.5945 80.2401 57.3384 80.4248C55.4385 81.7949 53.537 83.1614 51.6529 84.5719C50.9482 85.0995 50.3737 85.1988 49.8569 84.1403C52.3599 81.9709 55.1053 80.4504 57.495 78.1201C56.6559 78.0383 56.057 78.7052 55.4106 79.1565C53.498 80.4918 51.6109 81.8975 49.7226 83.2979C48.9821 83.8472 48.3813 83.8001 47.8866 82.9589C48.0573 82.3555 48.4323 82.2662 48.7262 82.0531C51.4619 80.0694 54.2033 78.1008 56.9389 76.1167C57.38 75.7968 57.8558 75.4937 58.0141 74.4738C56.3877 75.6407 54.8735 76.7272 53.2979 77.8592ZM87.7355 69.372C88.1557 69.4844 88.5715 69.6276 88.9969 69.7045C92.8274 70.3967 96.524 69.7953 99.7728 66.3881C104.72 61.1991 103.971 53.1292 99.6982 48.9618C99.3874 51.5244 97.997 52.7872 96.3731 53.547C93.9116 54.6989 91.4123 54.8311 88.9291 54.0979C87.7122 53.7385 86.6713 52.9314 85.5933 51.9488C85.6456 52.3817 85.68 52.62 85.7025 52.8612C85.7643 53.5239 86.0597 54.2979 85.4092 54.7436C84.744 55.1994 84.2267 54.6272 83.7349 54.1693C83.4997 53.9504 83.4868 53.5433 83.404 53.1979C83.3096 52.8042 83.4127 52.2745 83.0398 52.0578C82.7139 52.2725 82.5782 52.666 82.4068 53.0164C81.4223 55.0282 81.477 55.3019 83.1888 55.8809C84.052 56.1729 84.5225 56.8753 84.8144 57.9253C85.1501 59.1334 85.1628 60.3838 85.081 61.6734C85.0246 62.5624 84.8479 63.3814 84.4621 64.1373C84.0291 64.9858 83.3816 65.1558 82.531 65.0936C83.9389 67.3811 85.7037 68.4763 87.7355 69.372ZM89.6439 34.6079C85.5863 37.4429 84.1126 43.0788 85.1626 47.4605C85.2465 47.4069 85.3617 47.3831 85.4055 47.298C86.4952 45.1779 88.1177 44.3091 89.8629 43.7409C90.31 43.5953 90.6206 43.3312 90.9038 42.7837C91.7001 41.2449 93.3871 41.0627 94.0671 42.4935C94.4355 43.2687 94.9033 43.539 95.512 43.7292C96.0453 43.8958 96.5534 44.1773 97.074 44.4032C97.6329 44.6457 98.0522 45.2934 98.7628 45.3803C99.0275 43.5515 99.3718 41.8122 99.515 40.0596C99.8845 35.5377 97.4398 32.3203 94.0868 32.8119C92.5858 33.032 91.1315 33.5321 89.6439 34.6079ZM71.2444 63.1342C70.9642 63.8821 70.4713 64.2162 69.9025 64.4229C67.9238 65.1421 66.7673 64.4022 66.0026 61.9065C65.8379 61.3691 65.7077 60.8351 65.0982 61.0701C63.6876 61.6139 62.3647 62.4071 61.257 63.7473C59.7421 65.5801 59.7901 67.64 61.3652 69.1395C61.7788 69.5332 62.2246 69.8927 62.6943 70.1598C65.5507 71.7841 68.5791 71.8897 71.6837 71.1287C73.2701 70.7399 74.7722 69.9898 76.0823 68.6113C77.5625 67.0538 77.7155 65.1006 76.4597 63.4286C75.7945 62.543 74.9893 61.9058 74.1045 61.4409C72.2153 60.4481 72.215 60.4491 71.2444 63.1342ZM68.2143 72.9806C65.5337 72.9763 63.0144 72.1366 60.5578 70.7923C60.7747 77.203 63.1566 80.7033 67.2575 80.784C73.2633 80.9021 75.5794 78.3321 76.7393 70.185C74.0744 72.0574 71.2944 72.9385 68.2143 72.9806ZM90.8518 45.4652C90.6681 44.9465 90.4458 44.6886 89.9197 44.8773C89.1254 45.1623 88.3518 45.4774 87.6321 46.0357C86.8934 46.6087 86.2428 47.2952 86.1982 48.5219C86.1523 49.787 86.834 50.387 87.54 50.8681C89.2833 52.0563 91.193 52.3822 93.1792 52.0996C94.7349 51.8782 96.2749 51.4801 97.6044 50.1499C98.8292 48.9244 98.8724 47.2774 97.7103 46.1812C96.9897 45.5014 96.1712 45.1187 95.3079 44.8007C94.4376 44.4801 94.0346 45.0142 93.9394 46.0009C93.8285 47.1496 93.2691 47.4441 92.586 47.576C91.5955 47.7672 91.2192 47.2963 90.8518 45.4652ZM84.6469 40.2632C86.3787 34.6673 90.7723 31.7232 94.8064 31.7114C97.8837 31.7023 100.322 34.1414 100.298 38.8605C100.286 41.3243 99.8509 43.6915 99.4269 46.0765C99.2988 46.7973 99.3649 47.2657 100.014 47.3732C100.348 45.2377 100.705 43.1728 100.981 41.0951C101.105 40.1621 101.094 39.2015 101.096 38.2569C101.107 34.4795 99.5018 31.5559 96.7463 30.7531C93.8149 29.8992 90.9298 30.6304 88.2508 32.7227C85.2592 35.0591 83.4354 38.4312 83.1618 43.0535C82.9578 46.5015 83.8756 49.6409 84.2296 52.9346C84.2702 53.3128 84.4452 53.594 84.9539 53.5312C84.7249 51.8367 84.4645 50.1895 84.2856 48.5208C83.9984 45.8423 83.9249 43.1487 84.6469 40.2632ZM59.4779 79.7803C60.3034 80.603 61.2014 81.2651 62.1929 81.6975C65.8629 83.2979 69.6231 83.3146 73.4386 81.8025C75.0451 81.1658 76.6031 80.3114 77.7725 78.5351C79.016 76.6463 78.7184 74.3428 77.0916 73.2482C77.0656 73.2712 77.0239 73.2881 77.0161 73.3182C76.955 73.5522 76.8973 73.7878 76.8443 74.0248C76.3199 76.3706 75.4805 78.4389 73.869 79.8707C71.6112 81.8768 69.131 82.1568 66.648 81.8464C63.4109 81.4419 61.0529 79.4559 60.2871 75.0046C60.2173 74.5986 60.1925 74.1058 59.8689 73.8572C58.0148 75.4255 57.8344 77.6155 59.4779 79.7803ZM84.4205 59.1854C84.218 57.7416 83.6534 56.8093 82.4998 56.5257C81.7062 56.3306 81.0539 55.7242 80.4837 54.9796C80.1883 54.5939 79.8927 54.1821 79.4122 54.049C78.9489 54.7058 78.503 55.4066 77.8486 55.8553C78.9127 57.3419 79.2862 59.2077 79.8656 60.9208C80.4408 62.6213 81.2973 63.8456 82.7749 64.1841C83.4937 64.3488 83.9402 63.9978 84.1644 63.1247C84.48 61.8956 84.7284 60.6459 84.4205 59.1854ZM69.6405 58.6166C68.7718 58.5773 67.8979 58.5241 67.0869 59.1616C66.3653 59.7288 66.3324 60.3783 66.9945 60.9478C67.78 61.6235 68.6934 61.5791 69.5933 61.4199C70.3007 61.2947 71.2227 61.0921 71.2926 59.99C71.3618 58.8995 70.4541 58.8226 69.6405 58.6166ZM78.1567 66.0458C78.0847 66.4808 78.0126 66.9159 77.9349 67.3852C79.2914 65.5658 79.1007 63.0825 77.5185 61.6146C76.14 60.3357 74.5909 59.5432 72.9222 59.1108C72.6951 59.0519 72.4152 58.8561 72.1627 59.1771C72.3456 59.7687 72.7528 59.7578 73.0952 59.8719C74.1696 60.23 75.1867 60.7504 76.0891 61.5756C77.2155 62.6057 78.1098 63.8576 78.1567 66.0458ZM60.5558 61.8368C58.5547 63.7225 58.0922 65.8475 59.3235 67.7188C59.0973 65.3182 59.9596 63.6249 61.3631 62.2531C62.4313 61.209 63.6125 60.5338 64.8673 60.0893C65.2258 59.9622 65.6201 59.9262 65.7537 59.1668C63.917 59.6125 62.2091 60.3166 60.5558 61.8368ZM68.5917 84.6898C70.6963 84.607 72.6963 83.8695 74.6142 82.5875C70.0582 84.3469 65.5861 84.4965 61.2052 82.5305C63.4136 84.1731 65.8373 84.7961 68.5917 84.6898ZM87.2529 71.2113C84.8608 72.9398 82.4701 74.6719 80.0753 76.3935C79.658 76.6935 79.2619 76.9824 79.3429 77.8532C82.5411 75.53 85.6784 73.251 88.8824 70.9235C88.2401 70.3654 87.8099 70.7839 87.2529 71.2113ZM80.8114 73.0164C80.2579 73.5253 79.4852 73.6577 79.0776 74.6758C79.867 74.6967 85.1724 70.9553 86.0282 69.886C85.3013 69.5281 85.2962 69.5311 80.8114 73.0164ZM91.4536 44.7521C91.7782 45.5462 92.3149 45.7122 92.9365 45.4297C93.4382 45.2016 93.6401 44.6277 93.6653 43.9626C93.6947 43.1838 93.3453 42.7899 92.8449 42.5844C92.032 42.2506 91.3808 43.1603 91.4536 44.7521ZM91.5423 53.2702C89.8248 53.1602 88.1685 52.7704 86.6675 51.6719C88.6635 54.4911 96.3135 54.4898 98.3622 50.7625C96.2986 52.8647 94.0144 53.1233 91.5423 53.2702ZM77.9409 69.8331C77.7988 70.0985 77.6043 70.3471 77.7695 70.8055C79.4262 69.5924 81.0695 68.3893 82.7202 67.1806C82.503 66.5289 82.2469 66.5745 81.9239 66.8273C80.6427 67.8301 79.2623 68.58 77.9409 69.8331ZM80.9301 70.3548C79.9836 71.0567 78.9825 71.6377 78.071 72.6187C78.7389 72.8915 83.3094 69.7106 84.0449 68.5844C84.0118 68.4727 83.9786 68.3609 83.9454 68.2492C82.9815 68.9202 82.0177 69.5911 80.9301 70.3548ZM62.9984 86.2076C61.6075 87.2513 60.2166 88.295 58.8257 89.3388C58.8822 89.4856 58.9387 89.6325 58.9952 89.7793C60.9132 88.421 62.8312 87.0627 64.8643 85.6228C64.0742 85.0658 63.6356 85.8593 62.9984 86.2076ZM67.2772 62.8661C68.1937 63.965 70.0708 63.7278 70.4676 62.3785C69.6205 62.5635 68.7998 62.6857 67.9809 62.5744C67.7407 62.5418 67.4614 62.2105 67.2772 62.8661ZM81.1396 64.7737C80.4208 65.101 79.6468 65.3389 79.4127 66.7356C80.0347 66.2555 80.5505 65.8689 81.0569 65.4602C81.2326 65.3184 81.4938 65.1686 81.1396 64.7737ZM83.6697 75.7982C84.7314 75.0276 85.7931 74.257 86.8548 73.4863C86.8281 73.4183 86.8014 73.3503 86.7747 73.2823C85.3245 74.3288 83.8743 75.3753 82.2029 76.5813C82.878 76.4961 83.1789 76.074 83.6697 75.7982ZM81.6949 79.8953C80.7667 80.5827 79.8386 81.2701 78.9104 81.9576C80.2052 81.3521 81.3905 80.4748 82.4634 79.3161C82.2456 79.4815 82.0278 79.6469 81.6949 79.8953ZM76.869 54.5653C77.519 55.0197 77.9395 54.5228 78.4567 53.7968C77.7609 53.5901 77.3396 53.9864 76.869 54.5653ZM85.5191 71.5322C85.5058 71.4747 85.4972 71.4136 85.4756 71.3628C85.471 71.3519 85.416 71.3698 85.3899 71.389C84.68 71.9098 83.9708 72.4326 83.2615 72.9551C83.2858 73.0218 83.3101 73.0886 83.3345 73.1553C84.0395 72.6417 84.7445 72.1281 85.5191 71.5322Z" fill="#5BAD32"/>
<path d="M108.1 60.0506C109.096 60.7526 110.039 61.3983 110.967 62.0768C111.845 62.7187 112.214 63.7557 112.166 65.1095C112.105 66.8397 112.052 68.57 112.012 70.2996C111.981 71.6027 111.577 72.6696 110.709 73.3339C108.807 74.7902 106.877 76.1777 104.964 77.605C104.435 77.9991 103.905 77.925 103.438 77.6397C102.624 77.1426 101.922 77.4367 101.155 77.9999C95.5578 82.1057 89.9472 86.1755 84.3428 90.2615C81.7777 92.1316 79.2235 94.0304 76.6504 95.8793C75.7628 96.517 75.1046 97.352 74.8194 98.6499C74.6315 99.505 74.2128 100.093 73.6169 100.52C71.4899 102.043 69.3803 103.613 67.2478 105.122C65.6224 106.272 63.9677 106.304 62.4021 105.317C60.6213 104.195 58.8955 102.933 57.1433 101.737C56.5791 101.353 56.1765 100.799 56.0091 99.9595C55.7601 98.711 55.1655 97.9089 54.2916 97.3353C52.1446 95.9258 50.0295 94.4365 47.9162 92.9455C47.5461 92.6843 47.2528 92.6783 46.8892 92.9926C46.1153 93.6615 45.3736 93.592 44.6079 93.0384C43.092 91.9423 41.5577 90.8855 40.0095 89.8654C38.8828 89.1232 38.3592 87.9653 38.439 86.2504C38.51 84.7265 38.5221 83.2024 38.5661 81.6782C38.6117 80.1017 39.1343 78.9062 40.2341 78.1284C45.5381 74.3771 50.8372 70.613 56.1381 66.8535C56.2784 66.754 56.4172 66.6502 56.5596 66.557C56.7886 66.4069 57.0308 66.209 57.2026 66.6137C57.379 67.0294 57.2272 67.3134 56.931 67.5154C56.1397 68.0551 55.3409 68.5744 54.5558 69.1308C50.124 72.2717 45.6906 75.4086 41.2701 78.5794C40.5125 79.1228 39.5105 79.5267 39.474 80.9374C39.4398 82.2607 40.3896 82.4946 41.0692 82.9644C47.1659 87.1788 53.2692 91.3776 59.3638 95.5969C60.6499 96.4873 61.8604 97.5586 63.2704 98.1443C64.7233 98.7479 66.1578 98.5151 67.5254 97.5271C74.0895 92.7846 80.6412 88.0097 87.197 83.2456C94.7013 77.7924 102.205 72.3384 109.71 66.8852C109.793 66.8244 109.883 66.7773 109.964 66.7111C110.58 66.2087 111.33 65.8352 111.313 64.6432C111.297 63.5418 110.704 63.0615 110.06 62.6272C108.439 61.5326 106.826 60.4192 105.214 59.3033C104.843 59.0468 104.427 58.8037 104.673 57.7515C105.826 58.5243 106.933 59.2664 108.1 60.0506ZM51.8722 94.4292C52.8674 95.1151 53.8476 95.8393 54.8621 96.4759C55.8315 97.0843 56.4401 98.0722 56.7277 99.4141C56.854 100.003 57.0832 100.432 57.4767 100.702C59.3334 101.977 61.1597 103.334 63.0644 104.483C64.3016 105.229 65.6653 105.068 66.9415 104.168C68.9915 102.724 71.0213 101.225 73.0587 99.7465C73.4521 99.461 73.8811 99.1749 73.9981 98.5529C74.3827 96.5077 75.5432 95.4661 76.8357 94.5294C81.3866 91.2311 85.924 87.8974 90.4711 84.5892C94.2373 81.8492 98.0118 79.1308 101.778 76.3912C102.443 75.9079 103.06 75.6539 103.632 76.4672C103.95 76.9187 104.345 76.8648 104.74 76.5759C106.524 75.2723 108.308 73.9727 110.082 72.6442C110.558 72.2873 111.015 71.8024 111.108 71.0522C111.27 69.7556 111.288 68.453 111.243 67.2019C110.905 67.0626 110.734 67.3124 110.549 67.4472C105.838 70.8816 101.132 74.3314 96.4195 77.7625C86.9654 84.6456 77.5096 91.5246 68.0497 98.3925C65.9427 99.9222 63.8481 100.001 61.8091 98.5956C55.0043 93.9062 48.2046 89.2049 41.396 84.5247C40.7688 84.0936 40.1783 83.535 39.3516 83.3144C39.3229 84.3216 39.3409 85.2249 39.2615 86.1206C39.1443 87.4428 39.5214 88.2993 40.3834 88.8697C41.9572 89.9112 43.5079 91.0092 45.0721 92.0744C45.3899 92.2908 45.7137 92.5807 46.0999 92.1809C46.0075 91.019 46.3025 90.6886 47.1391 91.2162C48.7 92.2005 50.2174 93.2958 51.8722 94.4292Z" fill="#5BAD32"/>
<path d="M104.595 60.8231C104.527 60.6021 104.443 60.3875 104.398 60.1569C104.379 60.0595 104.443 59.9281 104.467 59.8214C104.779 59.5642 105.022 59.7718 105.258 59.9332C106.685 60.9061 108.109 61.8861 109.53 62.8717C109.69 62.9825 109.835 63.1319 109.975 63.2829C110.843 64.2181 110.83 65.1705 109.867 66.0809C108.331 67.5326 106.626 68.585 104.985 69.7828C92.8721 78.6289 80.741 87.4288 68.6189 96.2521C67.278 97.2281 65.9721 98.275 64.3814 98.0523C63.4333 97.9195 62.6173 97.4038 61.8131 96.849C55.0686 92.1963 48.3301 87.5295 41.5907 82.8647C41.3762 82.7162 41.1615 82.5622 40.965 82.3782C40.0046 81.4791 40.0232 80.3067 41.065 79.4245C41.9491 78.676 42.8771 78.0195 43.801 77.3638C47.9755 74.4013 52.1521 71.4444 56.3391 68.516C56.7106 68.2562 57.259 67.487 57.5358 68.1515C57.8441 68.8917 57.0514 69.0453 56.6983 69.3527C56.0351 69.9299 55.3299 70.4177 54.5346 71.0246C52.8809 72.167 51.3217 73.1926 49.7927 74.2982C48.4609 75.2612 47.0467 76.0178 45.7514 77.2659C44.2782 78.2372 42.8714 79.1867 41.4645 80.1362C41.4972 80.2227 41.5299 80.3093 41.5626 80.3958C42.9448 79.2505 44.5037 78.5732 45.882 77.224C47.0224 76.4898 48.1168 75.825 49.1636 75.0402C50.9549 73.6975 52.8483 72.6186 54.5604 71.073C55.5179 70.7326 56.3026 69.8719 57.2058 69.3702C57.5233 69.1938 57.9426 68.6041 58.1594 69.2578C58.3542 69.8452 57.8018 70.0425 57.4903 70.264C52.5038 73.8097 47.5125 77.3427 42.5227 80.8798C42.2746 81.0557 42.0307 81.2431 41.7029 81.4858C42.3892 82.3005 43.1805 82.714 43.9123 83.2214C50.1408 87.54 56.3879 91.8145 62.615 96.1362C64.2079 97.2417 65.7593 97.1589 67.402 95.9577C75.8969 89.746 84.3996 83.555 92.9048 77.3702C98.0909 73.599 103.286 69.8514 108.479 66.097C108.703 65.9349 108.943 65.8134 109.027 65.2526C108.008 64.5479 106.948 63.8173 105.89 63.0815C105.408 62.7459 104.907 62.4432 104.456 62.0456C104.088 61.7205 103.865 61.274 104.58 60.8952C106.227 62.222 107.877 63.2618 109.551 64.2462C107.965 62.949 106.35 61.7207 104.595 60.8231Z" fill="#5BAD32"/>
<path d="M73.7066 89.2197C71.1624 91.0662 68.6802 92.8686 66.1924 94.6564C65.9459 94.8336 65.6673 95.0036 65.4011 95.0319C65.0199 95.0724 64.6073 94.9115 64.4896 94.4131C64.3466 93.8072 64.827 93.6968 65.1134 93.4991C71.2326 89.2746 77.2574 84.8015 83.2999 80.375C89.9829 75.4793 96.6691 70.5919 103.351 65.6927C103.987 65.2263 104.573 64.974 105.215 66.1375C94.7596 73.9875 84.2296 81.4937 73.7066 89.2197Z" fill="#5BAD32"/>
<path d="M70.136 40.9128C69.8742 39.9634 69.8457 39.1285 69.7747 38.279C69.7229 37.6596 69.6685 37.0415 69.5477 36.3937C69.2981 35.0562 68.6829 33.9679 67.722 33.1052C67.4886 32.8956 67.2511 32.7026 67.0144 32.5082C66.788 32.3222 66.629 32.0917 66.6706 31.8094C66.7121 31.5276 66.888 31.527 67.1356 31.6936C68.8321 32.8351 70.0081 34.8157 70.3471 37.1126C70.4627 37.8961 70.4891 38.6405 70.5599 39.4043C70.6434 40.3057 70.7645 41.2114 71.2784 42.17C71.4343 42.4607 71.61 42.7199 71.8129 42.9552C72.2827 43.4997 72.3136 43.6107 72.1576 44.24C71.2026 43.3727 70.5242 42.2933 70.136 40.9128Z" fill="white"/>
<path d="M71.2407 44.5404C71.2795 44.9776 71.176 45.0674 70.8621 44.9118C69.3449 44.1597 68.1622 42.3093 67.9173 40.3194C67.818 39.5127 67.8507 38.7807 67.8458 38.027C67.8433 37.6305 67.827 37.2284 67.7668 36.8037C67.6533 36.0019 67.333 35.2874 66.7527 34.6816C66.5459 34.4657 66.3754 34.229 66.4606 33.9705C66.5494 33.701 66.7722 33.8861 66.9671 34.0743C67.7762 34.8555 68.2607 35.821 68.4667 36.9415C68.6244 37.7989 68.5835 38.5528 68.5842 39.3283C68.5845 39.7728 68.5934 40.2205 68.6552 40.6961C68.8158 41.9324 69.3419 42.8931 70.2722 43.634C70.4697 43.7913 70.6704 43.9286 70.8702 44.0688C71.0164 44.1714 71.1465 44.2944 71.2407 44.5404Z" fill="white"/>
<path d="M74.0449 49.4172C73.1441 48.4117 72.667 47.2909 72.511 46.0592C72.4171 45.3177 72.4324 44.6378 72.4723 43.9714C72.4994 43.5197 72.5176 43.0612 72.4643 42.5641C72.4007 41.9693 72.2177 41.3813 71.8264 40.8193C71.7689 40.7367 71.7169 40.6465 71.666 40.5572C71.517 40.2959 71.4621 40.0593 71.593 39.9223C71.7246 39.7847 71.8955 39.8967 72.0736 40.1339C72.8696 41.1936 73.2222 42.2924 73.2215 43.407C73.2211 44.0964 73.1852 44.7648 73.1784 45.4506C73.1757 45.7185 73.1933 46.0022 73.2291 46.2893C73.3807 47.5061 73.9063 48.4795 74.8229 49.255C74.9798 49.3877 75.1427 49.4911 75.2975 49.6306C75.5023 49.815 75.6467 50.0586 75.6098 50.3168C75.5753 50.5579 75.4108 50.5588 75.2079 50.4219C74.8155 50.1571 74.4331 49.8349 74.0449 49.4172Z" fill="white"/>
<path d="M73.809 39.0069C74.4007 40.0593 74.5404 41.0476 74.672 42.0235C74.811 43.0554 75.1514 43.9702 75.9601 44.7127C76.1671 44.9026 76.255 45.1535 76.199 45.37C76.1369 45.6102 75.9596 45.5764 75.7466 45.3853C75.0287 44.7412 74.517 43.9069 74.2047 42.9035C73.9979 42.2391 73.9376 41.6104 73.838 40.9736C73.6252 39.6129 73.0773 38.6649 72.0613 37.922C71.8919 37.7981 71.7199 37.6935 71.5523 37.5589C71.3648 37.4083 71.2349 37.1982 71.2509 36.9528C71.266 36.7207 71.3868 36.6424 71.5826 36.7471C72.4141 37.1919 73.1816 37.8423 73.809 39.0069Z" fill="white"/>
<path d="M68.9248 45.2527C68.3786 44.5447 68.0123 43.793 67.8032 42.9709C67.7327 42.6941 67.7383 42.4714 67.9479 42.4951C68.1399 42.5168 68.313 42.7223 68.3957 43.0048C68.7832 44.3288 69.5242 45.0923 70.4202 45.648C71.0464 46.0365 71.6675 46.4699 72.1805 47.301C72.6416 48.0482 72.8951 48.8096 72.9773 49.5816C73.0074 49.8646 72.9271 50.0284 72.6997 49.9454C72.4642 49.8595 72.3498 49.6023 72.2984 49.3204C72.189 48.72 72.0433 48.1318 71.6286 47.5772C71.3339 47.1832 71.009 46.9355 70.6766 46.7133C70.0851 46.318 69.489 45.9512 68.9248 45.2527Z" fill="white"/>
<path d="M76.4461 50.6175C76.4219 50.0579 76.3747 49.5159 76.2157 48.9353C75.9393 47.9262 75.4125 47.0938 74.7325 46.395C74.441 46.0954 74.1345 45.8348 73.8316 45.5726C73.4271 45.2224 73.3324 44.973 73.4469 44.5486C73.4809 44.4227 73.5496 44.4488 73.6492 44.524C75.7212 46.0864 77.0965 48.1259 77.1666 51.0675C77.1702 51.2173 77.1745 51.3682 77.1675 51.5113C77.1559 51.7481 77.0456 51.8326 76.8481 51.7338C76.6372 51.6283 76.502 51.4138 76.4693 51.1368C76.4493 50.9678 76.4538 50.8085 76.4461 50.6175Z" fill="white"/>
</svg>
