<svg width="1209" height="1164" viewBox="0 0 1209 1164" fill="none" xmlns="http://www.w3.org/2000/svg">
<path d="M40 42C40 40.8954 40.8954 40 42 40H1166.9C1168 40 1168.9 40.8954 1168.9 42V1113.51C1168.9 1119.04 1164.42 1123.51 1158.9 1123.51H42C40.8954 1123.51 40 1122.62 40 1121.51V42Z" fill="white"/>
<path d="M42 40V41H1166.9V40V39H42V40ZM1168.9 42H1167.9V1113.51H1168.9H1169.9V42H1168.9ZM1158.9 1123.51V1122.51H42V1123.51V1124.51H1158.9V1123.51ZM40 1121.51H41V42H40H39V1121.51H40ZM42 1123.51V1122.51C41.4477 1122.51 41 1122.07 41 1121.51H40H39C39 1123.17 40.3431 1124.51 42 1124.51V1123.51ZM1168.9 1113.51H1167.9C1167.9 1118.48 1163.87 1122.51 1158.9 1122.51V1123.51V1124.51C1164.97 1124.51 1169.9 1119.59 1169.9 1113.51H1168.9ZM1166.9 40V41C1167.45 41 1167.9 41.4477 1167.9 42H1168.9H1169.9C1169.9 40.3432 1168.55 39 1166.9 39V40ZM42 40V39C40.3432 39 39 40.3431 39 42H40H41C41 41.4477 41.4477 41 42 41V40Z" fill="black" fill-opacity="0.1"/>
<path d="M476.097 622.59C476.097 617.562 480.181 613.486 485.22 613.486C490.08 613.486 494.053 617.279 494.327 622.062" stroke="#200001" stroke-width="3"/>
<path d="M505.075 626.338C504.779 623.04 501.774 620.983 498.111 620.983C494.251 620.983 491.122 623.86 491.122 627.409C491.122 630.958 494.251 633.835 498.111 633.835C499.674 633.835 501.118 633.363 502.282 632.565" stroke="#0D0000" stroke-width="2"/>
<path d="M443.033 631.261C445.107 635.246 447.521 628.484 447.201 627.427C446.801 626.107 452.209 628.77 453.533 628.261C458.831 626.226 456.534 631.261 462.533 631.261C468.033 631.261 467.533 619.261 476.033 621.533" stroke="#250101" stroke-width="3"/>
<path d="M527.5 619.986C528.5 620.486 533.339 621.64 536.362 623.203C543.343 626.813 550.056 625.681 556.5 627.486" stroke="black" stroke-width="3"/>
<path d="M502.928 633.3C501.855 632.764 500.302 631.935 500.302 629.885C500.302 627.815 501.934 626.137 503.947 626.137C505.96 626.137 507.592 627.815 507.592 629.885C507.592 630.251 507.687 630.481 507.592 630.816" stroke="black" stroke-width="2"/>
<path d="M534.159 627.909C535.829 627.909 537.215 629.262 537.301 630.989L537.304 631.158V631.161C537.304 631.166 537.304 631.173 537.303 631.184C537.303 631.205 537.302 631.239 537.299 631.284C537.292 631.374 537.279 631.505 537.254 631.663C537.202 631.983 537.099 632.401 536.899 632.813C536.7 633.224 536.409 633.617 535.984 633.908C535.563 634.197 534.98 634.406 534.159 634.406C532.435 634.406 531.015 632.965 531.014 631.158C531.014 629.351 532.435 627.909 534.159 627.909Z" stroke="#130000"/>
<path d="M517 620.449C517.094 618.247 519.296 616.486 521.998 616.486C524.761 616.486 527 618.326 527 620.597C527 622.4 525.588 623.931 523.624 624.486" stroke="#200505" stroke-width="2"/>
<path d="M513.124 634.873C513.3 634.895 513.479 634.906 513.661 634.906C516.032 634.906 517.954 632.988 517.954 630.622C517.954 628.256 516.032 626.338 513.661 626.338C511.29 626.338 509.368 628.256 509.368 630.622C509.368 630.808 509.379 630.99 509.402 631.169" stroke="#1E0606" stroke-width="2"/>
<path d="M472.341 624.696C474.14 624.696 475.597 626.152 475.597 627.945C475.597 629.738 474.14 631.193 472.341 631.193C470.542 631.193 469.084 629.738 469.084 627.945C469.084 626.152 470.542 624.696 472.341 624.696Z" stroke="#1F0606"/>
<path d="M475.024 629.86C475.163 629.876 475.305 629.885 475.449 629.885C477.462 629.885 479.094 628.207 479.094 626.136C479.094 624.066 477.462 622.388 475.449 622.388C473.919 622.388 472.609 623.357 472.069 624.732" stroke="black" stroke-width="2"/>
<path d="M531.567 629.185C530.754 626.902 528.57 625.267 526.003 625.267C522.743 625.267 520.1 627.904 520.1 631.158C520.1 634.411 522.743 637.048 526.003 637.048C528.52 637.048 530.668 635.477 531.517 633.264" stroke="#1A0202" stroke-width="2"/>
<path d="M520.1 631.669C519.923 631.685 519.745 631.693 519.564 631.693C518.806 631.693 518.082 631.551 517.417 631.292" stroke="#1B0404"/>
<path d="M511.051 626.486C511.017 626.297 511 626.104 511 625.908C511 623.466 513.692 621.486 517.012 621.486C520.148 621.486 522.724 623.252 523 625.506" stroke="#240404" stroke-width="2"/>
<path d="M507.758 631.622C510.665 631.622 512.66 633.512 512.661 635.442C512.661 637.371 510.665 639.262 507.758 639.262C504.851 639.262 502.855 637.371 502.855 635.442C502.855 633.512 504.852 631.622 507.758 631.622Z" stroke="black" stroke-width="2"/>
<path d="M477.959 628.102C479.626 630.285 482.258 631.693 485.22 631.693C487.689 631.693 489.929 630.714 491.572 629.123" stroke="#100303" stroke-width="2"/>
<g filter="url(#filter0_d_0_1)">
<path d="M493.016 668.558C493.509 672.058 490.554 675.558 494.986 676.058C499.418 676.558 501.388 679.058 506.806 675.058C512.223 671.058 517.64 671.058 519.61 667.558C521.58 664.058 526.012 662.058 519.61 664.058C513.208 666.058 512.145 666.313 505.821 670.058C499.911 673.558 497.941 666.558 496.464 670.058C496.464 670.42 496.47 670.753 496.483 671.058C496.65 674.97 497.824 674.408 498.433 673.558" stroke="#FF0000" stroke-width="4" shape-rendering="crispEdges"/>
</g>
<g opacity="0.9" filter="url(#filter1_d_0_1)">
<path d="M491.539 682.058C492.031 693.558 491.539 694.175 491.539 695.675C491.539 697.175 493.509 692.675 496.956 688.175C500.403 683.675 503.358 680.175 513.208 677.175C523.058 674.175 536.847 658.058 525.52 672.058C514.193 686.058 519.61 684.058 512.223 689.058C504.836 694.058 491.138 701.295 503.851 696.675C515.178 692.558 508.431 697.672 514.685 695.675C526.012 692.058 522.073 696.175 526.997 690.675C530.937 686.275 523.55 688.058 526.997 685.058" stroke="#FF0000" stroke-width="3" shape-rendering="crispEdges"/>
</g>
<path d="M442.318 631.723C442.318 638.298 448.428 640.928 450.686 643.119C452.944 645.311 463.96 650.902 485.137 650.902C485.137 650.902 518.26 650.132 528.954 648.379C539.647 646.626 552.089 643.558 555.739 635.23C559.388 626.902 556.559 628.071 555.739 626.902" stroke="black" stroke-width="4"/>
<path d="M522.692 618.556C524.995 618.61 527.227 618.705 529.382 618.852C538.326 619.462 545.737 620.958 551.374 624C556.918 626.991 560.818 631.516 562.753 638.466C564.716 645.518 564.683 655.182 562.004 668.412C556.61 695.043 549.396 705.617 539.656 710.164C534.682 712.486 528.85 713.34 521.799 713.691C518.282 713.866 514.516 713.915 510.437 713.973C506.37 714.032 502.01 714.1 497.358 714.317C478.884 715.18 466.51 713.857 457.651 706.939C448.797 700.025 442.986 687.142 438.812 663.462C436.741 651.714 436.828 643.301 438.622 637.232C440.381 631.282 443.816 627.465 448.841 624.895C453.973 622.271 460.907 620.177 469.317 620.177C469.699 620.144 471.847 620.209 472.234 620.177" stroke="black" stroke-width="3"/>
<path d="M463.96 710.402C470.855 717.902 478.242 720.902 488.584 720.902C498.926 720.902 491.046 720.902 510.746 720.902C530.445 720.902 538.817 711.402 540.295 710.402" stroke="black" stroke-width="3"/>
<path d="M518 618.729C522.203 618.028 524.523 619.106 524.895 618.729C525.387 618.229 526.197 619.528 526.372 620.229" stroke="black" stroke-width="3"/>
<g filter="url(#filter2_d_0_1)">
<path d="M567.849 366.726C567.241 375.3 556.182 386.67 549.826 386.531C542.856 386.378 534.074 378.132 539.229 369.049C545.534 357.939 552.536 354.68 554.417 354.133C560.815 352.273 568.457 358.151 567.849 366.726Z" fill="white"/>
<path d="M596.45 519.097C599.8 519.171 616.922 519.465 618.939 519.589C620.553 519.689 602.435 520.605 596.45 519.097Z" fill="white"/>
<path d="M722.787 325.32C711.787 372.157 715.608 364.262 686.746 341.132C680.219 334.647 657.399 326.593 657.701 312.155C658.004 297.717 671.549 283.302 687.878 283.66C704.206 284.017 725.559 306.834 722.787 325.32Z" fill="white"/>
<path d="M587.39 390.652C588.455 388.838 589.599 387.071 590.85 385.385C608.866 361.113 613.944 329.937 621.419 331.101C632.632 332.846 619.258 366.066 602.16 394.895C588.144 418.527 561.231 441.472 547.896 445.381C543.573 446.648 538.028 443.207 540.772 439.564C547.451 430.693 574.448 412.692 587.39 390.652Z" fill="white"/>
<path d="M713.429 375.112C714.917 374.145 708.593 372.506 713.534 370.114M612.574 519.896C634.574 520.378 671.468 499.405 696.578 455.738C713.835 425.73 718.545 387.723 711.589 369.572M550.12 442.534C555.351 448.217 552.563 443.552 555.315 451.732C557.15 457.187 547.941 467.518 547.121 468.967C541.534 478.844 528.718 483.563 523.267 486.944C519.382 489.353 512.131 492.814 508.891 496.128C506.197 498.885 506.352 500.573 506.3 503.072C506.225 506.628 508.063 510.049 509.575 510.143C511.088 510.236 513.693 509.47 520.12 507.532C526.791 505.52 528.691 503.968 537.1 503.746C541.115 503.64 550.942 505.695 556.079 508.319C561.217 510.943 571.031 514.874 574.504 516.063C577.976 517.253 589.606 518.948 596.45 519.097M596.45 519.097C599.8 519.171 616.922 519.465 618.939 519.589C620.553 519.689 602.435 520.605 596.45 519.097ZM545.411 437.415C538.801 421.008 534.423 405.359 560.048 377.583C584.023 341.782 599.716 339.557 614.334 342.445M633.9 342.373C633.713 341.541 633.568 340.704 633.462 339.863C632.523 332.364 634.74 324.404 638.575 314.191C649.563 284.933 670.251 262.011 695.345 265.936C720.439 269.862 739.938 299.323 735.73 327.43C733.364 343.238 724.968 359.345 713.609 369.716M633.309 338.677C633.764 338.418 634.22 338.164 634.676 337.914M634.264 343.058C634.857 345.586 635.647 345.744 631.866 345.335C627.548 344.868 624.882 342.232 624.088 340.972L624.063 342.158M633.931 340.874C634.878 342.395 634.711 343.318 634.846 343.894M567.849 366.726C567.241 375.3 556.182 386.67 549.826 386.531C542.856 386.378 534.074 378.132 539.229 369.049C545.534 357.939 552.536 354.68 554.417 354.133C560.815 352.273 568.457 358.151 567.849 366.726ZM722.787 325.32C711.787 372.157 715.608 364.262 686.746 341.132C680.219 334.647 657.399 326.593 657.701 312.155C658.004 297.717 671.549 283.302 687.878 283.66C704.206 284.017 725.559 306.834 722.787 325.32ZM621.419 331.101C613.944 329.937 608.866 361.113 590.85 385.385C589.599 387.071 588.455 388.838 587.39 390.652C574.448 412.692 547.451 430.693 540.772 439.564C538.028 443.207 543.573 446.648 547.896 445.381C561.231 441.472 588.144 418.527 602.16 394.895C619.258 366.066 632.632 332.846 621.419 331.101Z" stroke="black" stroke-width="3"/>
</g>
<g filter="url(#filter3_d_0_1)">
<path d="M515.895 618.998C516.62 613.76 515.384 605.466 515.895 597.978C517.624 572.659 517.71 568.627 512.508 534.515C507.307 500.403 512.977 512.626 513.322 496.498M475.798 618.998C476.691 604.934 480.579 606.437 487.43 585.99C495.06 563.216 496.913 560.743 497.066 542.992C497.22 525.24 501.565 531.629 508.223 497.304" stroke="black" stroke-width="3"/>
</g>
<g filter="url(#filter4_d_0_1)">
<path d="M648.31 656.309C639.42 656.608 632.712 658.107 638.053 658.107C643.523 658.107 646.942 658.406 652.413 657.507C657.883 656.608 660.618 655.709 660.618 655.11C660.618 652.282 657.883 650.914 644.207 652.712C634.634 653.971 612.068 656.309 603.862 657.507C591.554 659.306 603.498 660.982 606.233 661.792C608.968 662.602 610.016 662.602 625.744 662.602C634.634 662.602 649.677 663.801 664.721 661.403C679.765 659.006 677.03 657.507 678.397 656.309" stroke="black" stroke-width="4"/>
<path d="M632.897 691.558C633.397 695.058 630.397 698.558 634.897 699.058C639.397 699.558 641.397 702.058 646.897 698.058C652.397 694.058 657.897 694.058 659.897 690.558C661.897 687.058 666.397 685.058 659.897 687.058C653.397 689.058 652.318 689.313 645.897 693.058C639.897 696.558 637.897 689.558 636.397 693.058C636.397 693.42 636.404 693.753 636.418 694.058C636.587 697.97 637.779 697.408 638.397 696.558" stroke="#FF0000" stroke-width="4"/>
<path d="M606.397 684.558C609.897 689.058 612.897 689.044 613.897 689.058M613.897 689.058C614.208 689.063 618.541 689.058 618.897 689.058C624.897 689.058 624.897 689.058 625.397 689.058H613.897Z" stroke="#FF0000" stroke-width="4"/>
<path d="M613.897 677.558C614.897 680.558 615.397 682.558 619.397 684.058C622.597 685.258 626.231 684.892 626.897 685.058" stroke="#FF0000" stroke-width="4"/>
<path d="M634.397 682.058C640.897 687.058 637.897 687.058 643.897 686.058C648.697 685.258 652.897 684.058 654.397 683.558" stroke="#FF0000" stroke-width="4"/>
<path d="M619.897 693.558C611.897 696.558 614.897 695.058 608.397 698.058M608.397 698.058C603.16 700.476 603.231 701.392 602.897 701.558L608.397 698.058Z" stroke="#FF0000" stroke-width="4"/>
<path d="M622.897 692.558C618.397 700.558 617.397 694.058 615.397 705.058M615.397 705.058C613.797 713.858 612.731 717.392 612.397 718.058L615.397 705.058Z" stroke="#FF0000" stroke-width="4"/>
<path d="M621.897 698.558C622.397 703.558 619.788 706.058 624.397 706.058M624.397 706.058C627.397 706.058 626.897 707.058 626.897 710.058L624.397 706.058Z" stroke="#FF0000" stroke-width="4"/>
<path opacity="0.9" d="M631.397 705.058C631.897 716.558 631.397 717.175 631.397 718.675C631.397 720.175 633.397 715.675 636.897 711.175C640.397 706.675 643.397 703.175 653.397 700.175C663.397 697.175 677.397 681.058 665.897 695.058C654.397 709.058 659.897 707.058 652.397 712.058C644.897 717.058 630.991 724.295 643.897 719.675C655.397 715.558 648.547 720.672 654.897 718.675C666.397 715.058 662.397 719.175 667.397 713.675C671.397 709.275 663.897 711.058 667.397 708.058" stroke="#FF0000" stroke-width="4"/>
<path d="M581.425 654.723C581.425 661.298 587.629 663.928 589.921 666.119C592.213 668.311 603.397 673.902 624.897 673.902C624.897 673.902 658.526 673.132 669.383 671.379C680.241 669.626 692.872 666.558 696.577 658.23C700.282 649.902 697.41 651.071 696.577 649.902" stroke="black" stroke-width="4"/>
<path d="M638.964 641.901C650.355 641.525 660.755 641.243 669.818 641.852C678.898 642.462 686.424 643.958 692.146 647C697.774 649.991 701.735 654.516 703.699 661.466C705.692 668.518 705.658 678.182 702.938 691.412C697.463 718.043 690.137 728.617 680.25 733.164C675.2 735.486 669.278 736.34 662.12 736.691C658.549 736.866 654.726 736.915 650.585 736.973C646.456 737.031 642.028 737.1 637.305 737.317C618.55 738.18 605.986 736.857 596.992 729.939C588.003 723.025 582.103 710.142 577.866 686.462C575.763 674.714 575.851 666.3 577.673 660.232C579.458 654.282 582.946 650.465 588.048 647.895C593.258 645.271 600.194 643.929 608.837 643.177C617.468 642.426 627.53 642.278 638.964 641.901Z" stroke="black" stroke-width="4"/>
<path d="M603.397 733.402C610.397 740.902 617.897 743.902 628.397 743.902C638.897 743.902 630.897 743.902 650.897 743.902C670.897 743.902 679.397 734.402 680.897 733.402" stroke="black" stroke-width="4"/>
</g>
<g filter="url(#filter5_d_0_1)">
<path d="M331.756 801.09L340.108 798.786V757.218L332.044 757.89L324.94 766.434L317.932 765.858C317.932 760.546 318.188 753.858 318.7 745.794H378.796C379.308 753.858 379.564 760.546 379.564 765.858L372.652 766.434L365.452 757.89L357.58 757.218V794.946C357.58 796.482 357.676 797.474 357.868 797.922C358.06 798.37 358.604 798.818 359.5 799.266L365.452 802.818L365.068 810.498H332.236L331.756 801.09ZM405.519 811.65C398.031 811.65 392.239 809.378 388.143 804.834C384.111 800.29 382.095 794.018 382.095 786.018C382.095 780.45 383.087 775.682 385.071 771.714C387.055 767.682 389.871 764.61 393.519 762.498C397.167 760.386 401.423 759.33 406.287 759.33C413.519 759.33 419.055 761.634 422.895 766.242C426.799 770.85 428.655 777.41 428.463 785.922L399.279 791.298C400.175 793.986 401.423 795.97 403.023 797.25C404.687 798.466 406.863 799.074 409.551 799.074C411.407 799.074 413.615 798.818 416.175 798.306C418.735 797.73 421.327 796.962 423.951 796.002L426.159 805.506C423.791 807.298 420.719 808.77 416.943 809.922C413.167 811.074 409.359 811.65 405.519 811.65ZM412.719 777.858C412.591 775.426 411.887 773.666 410.607 772.578C409.391 771.426 407.663 770.85 405.423 770.85C403.567 770.85 401.807 771.106 400.143 771.618C398.799 774.754 398.191 778.146 398.319 781.794L412.719 777.858ZM449.918 811.746C445.566 811.746 442.078 810.562 439.454 808.194C436.83 805.762 435.518 802.658 435.518 798.882C435.518 793.826 438.046 789.858 443.102 786.978C448.222 784.098 455.646 782.466 465.374 782.082C465.374 779.074 465.118 776.866 464.606 775.458C464.158 773.986 463.294 772.994 462.014 772.482C460.798 771.906 458.91 771.618 456.35 771.618C453.726 771.618 451.87 771.714 450.782 771.906L446.846 779.682L439.742 779.202C438.654 774.082 437.886 768.77 437.438 763.266C441.022 762.05 444.926 761.09 449.15 760.386C453.438 759.682 457.438 759.33 461.15 759.33C467.934 759.33 472.798 760.674 475.742 763.362C478.686 765.986 480.158 770.37 480.158 776.514V796.578C480.158 797.73 480.254 798.53 480.446 798.978C480.702 799.426 481.214 799.874 481.982 800.322L485.822 802.53L485.438 808.482C478.014 810.21 472.158 811.17 467.87 811.362C467.742 810.978 467.55 810.306 467.294 809.346C467.038 808.322 466.814 807.362 466.622 806.466C464.126 808.066 461.374 809.346 458.366 810.306C455.422 811.266 452.606 811.746 449.918 811.746ZM456.35 800.898C458.91 800.898 462.014 800.034 465.662 798.306L465.278 791.01C463.742 790.882 462.718 790.818 462.206 790.818C460.478 790.818 458.462 791.01 456.158 791.394C453.854 791.714 452.03 792.098 450.686 792.546C450.494 793.378 450.398 794.146 450.398 794.85C450.398 796.77 450.91 798.274 451.934 799.362C453.022 800.386 454.494 800.898 456.35 800.898ZM535.431 810.786C528.519 810.786 522.151 810.498 516.327 809.922L515.847 800.706L522.855 798.786V762.21C522.855 760.546 522.727 759.458 522.471 758.946C522.215 758.37 521.543 757.858 520.455 757.41L515.463 754.626L516.039 746.658C522.695 746.146 528.295 745.762 532.839 745.506C537.383 745.186 541.031 745.026 543.783 745.026C552.615 745.026 559.687 746.05 564.999 748.098C570.375 750.146 574.279 753.378 576.711 757.794C579.207 762.21 580.455 768.066 580.455 775.362C580.455 784.578 578.343 792.034 574.119 797.73C570.343 802.658 565.319 806.082 559.047 808.002C552.839 809.858 544.967 810.786 535.431 810.786ZM547.527 797.058C552.903 797.058 557.159 796.418 560.295 795.138C560.871 793.538 561.383 791.042 561.831 787.65C562.343 784.258 562.599 781.09 562.599 778.146C562.599 770.914 561.095 765.57 558.087 762.114C555.143 758.658 550.631 756.93 544.551 756.93C543.719 756.93 542.951 756.962 542.247 757.026C541.543 757.09 540.871 757.154 540.231 757.218V796.578C542.791 796.898 545.223 797.058 547.527 797.058ZM613.727 811.65C606.239 811.65 600.447 809.378 596.351 804.834C592.319 800.29 590.303 794.018 590.303 786.018C590.303 780.45 591.295 775.682 593.279 771.714C595.263 767.682 598.079 764.61 601.727 762.498C605.375 760.386 609.631 759.33 614.495 759.33C621.727 759.33 627.263 761.634 631.103 766.242C635.007 770.85 636.863 777.41 636.671 785.922L607.487 791.298C608.383 793.986 609.631 795.97 611.231 797.25C612.895 798.466 615.071 799.074 617.759 799.074C619.615 799.074 621.823 798.818 624.383 798.306C626.943 797.73 629.535 796.962 632.159 796.002L634.367 805.506C631.999 807.298 628.927 808.77 625.151 809.922C621.375 811.074 617.567 811.65 613.727 811.65ZM620.927 777.858C620.799 775.426 620.095 773.666 618.815 772.578C617.599 771.426 615.871 770.85 613.631 770.85C611.775 770.85 610.015 771.106 608.351 771.618C607.007 774.754 606.399 778.146 606.527 781.794L620.927 777.858ZM658.125 811.746C653.773 811.746 650.285 810.562 647.661 808.194C645.037 805.762 643.725 802.658 643.725 798.882C643.725 793.826 646.253 789.858 651.309 786.978C656.429 784.098 663.853 782.466 673.581 782.082C673.581 779.074 673.325 776.866 672.813 775.458C672.365 773.986 671.501 772.994 670.221 772.482C669.005 771.906 667.117 771.618 664.557 771.618C661.933 771.618 660.077 771.714 658.989 771.906L655.053 779.682L647.949 779.202C646.861 774.082 646.093 768.77 645.645 763.266C649.229 762.05 653.133 761.09 657.357 760.386C661.645 759.682 665.645 759.33 669.357 759.33C676.141 759.33 681.005 760.674 683.949 763.362C686.893 765.986 688.365 770.37 688.365 776.514V796.578C688.365 797.73 688.461 798.53 688.653 798.978C688.909 799.426 689.421 799.874 690.189 800.322L694.029 802.53L693.645 808.482C686.221 810.21 680.365 811.17 676.077 811.362C675.949 810.978 675.757 810.306 675.501 809.346C675.245 808.322 675.021 807.362 674.829 806.466C672.333 808.066 669.581 809.346 666.573 810.306C663.629 811.266 660.813 811.746 658.125 811.746ZM664.557 800.898C667.117 800.898 670.221 800.034 673.869 798.306L673.485 791.01C671.949 790.882 670.925 790.818 670.413 790.818C668.685 790.818 666.669 791.01 664.365 791.394C662.061 791.714 660.237 792.098 658.893 792.546C658.701 793.378 658.605 794.146 658.605 794.85C658.605 796.77 659.117 798.274 660.141 799.362C661.229 800.386 662.701 800.898 664.557 800.898ZM700.241 801.666L706.961 799.65V753.666C706.961 752.258 706.833 751.362 706.577 750.978C706.385 750.53 705.841 750.05 704.945 749.538L700.721 747.33L701.201 740.034C702.481 739.778 703.473 739.618 704.177 739.554C712.625 738.018 718.513 737.186 721.841 737.058C722.481 738.53 722.897 740.194 723.089 742.05V796.482C723.089 797.826 723.185 798.722 723.377 799.17C723.569 799.618 724.113 800.098 725.009 800.61L729.713 803.298L729.329 810.498H700.529L700.241 801.666ZM758.867 811.65C751.379 811.65 745.587 809.378 741.491 804.834C737.459 800.29 735.443 794.018 735.443 786.018C735.443 780.45 736.435 775.682 738.419 771.714C740.403 767.682 743.219 764.61 746.867 762.498C750.515 760.386 754.771 759.33 759.635 759.33C766.867 759.33 772.403 761.634 776.243 766.242C780.147 770.85 782.003 777.41 781.811 785.922L752.627 791.298C753.523 793.986 754.771 795.97 756.371 797.25C758.035 798.466 760.211 799.074 762.899 799.074C764.755 799.074 766.963 798.818 769.523 798.306C772.083 797.73 774.675 796.962 777.299 796.002L779.507 805.506C777.139 807.298 774.067 808.77 770.291 809.922C766.515 811.074 762.707 811.65 758.867 811.65ZM766.067 777.858C765.939 775.426 765.235 773.666 763.955 772.578C762.739 771.426 761.011 770.85 758.771 770.85C756.915 770.85 755.155 771.106 753.491 771.618C752.147 774.754 751.539 778.146 751.667 781.794L766.067 777.858ZM789.068 801.378L794.924 799.65V776.322C794.924 774.914 794.828 774.018 794.636 773.634C794.444 773.186 793.932 772.706 793.1 772.194L788.876 769.89L789.164 762.69C790.252 762.434 791.18 762.274 791.948 762.21C799.692 760.61 805.42 759.746 809.132 759.618C809.708 761.282 810.252 763.362 810.764 765.858C814.604 762.85 817.868 760.77 820.556 759.618H826.028C825.964 762.05 825.804 764.706 825.548 767.586C825.292 770.402 824.972 772.674 824.588 774.402C822.284 774.274 820.588 774.21 819.5 774.21C816.812 774.21 814.028 774.37 811.148 774.69V796.482C811.148 797.826 811.244 798.722 811.436 799.17C811.628 799.618 812.14 800.098 812.972 800.61L818.732 803.682L818.348 810.498H789.548L789.068 801.378Z" fill="black"/>
</g>
<g filter="url(#filter6_d_0_1)">
<path d="M505.493 886.282L512.608 884.332V846.979C512.608 845.289 512.478 844.184 512.218 843.663C511.958 843.078 511.276 842.558 510.171 842.103L505.298 839.275L505.59 830.498H558.52C558.975 837.324 559.202 843.989 559.202 850.49L551.989 850.978L545.068 842.396L530.349 842.006V857.902L551.112 856.147V871.166L530.349 868.923V884.624L546.53 884.332L554.036 875.749L561.249 876.237C560.989 883.064 560.502 889.728 559.787 896.23H505.98L505.493 886.282Z" fill="#FF0004"/>
<path d="M601.523 897.498C591.971 897.498 584.952 894.994 580.468 889.988C576.049 884.917 573.84 876.985 573.84 866.192V846.979C573.84 845.289 573.71 844.184 573.45 843.663C573.255 843.078 572.638 842.558 571.598 842.103L568.479 840.25L568.771 830.498H599.184L599.671 840.153L591.581 842.396V862.388C591.581 869.15 592.556 874.482 594.505 878.383C596.455 882.284 599.801 884.234 604.545 884.234C606.105 884.234 607.6 884.007 609.029 883.551C610.524 883.096 611.791 882.479 612.831 881.698C613.481 880.203 613.936 878.22 614.195 875.749C614.455 873.214 614.585 869.833 614.585 865.607V846.979C614.585 845.289 614.455 844.184 614.195 843.663C613.936 843.078 613.253 842.558 612.148 842.103L607.372 839.372L607.859 830.498H636.81L637.298 841.03L632.229 842.396V864.436C632.229 874.904 629.532 883.031 624.138 888.818C618.809 894.604 611.271 897.498 601.523 897.498Z" fill="#FF0004"/>
</g>
<g filter="url(#filter7_d_0_1)">
<path d="M469.646 659.558C473.093 664.058 476.048 664.044 477.033 664.058M477.033 664.058C477.339 664.063 481.607 664.058 481.958 664.058C487.868 664.058 487.868 664.058 488.36 664.058H477.033Z" stroke="#FF0000" stroke-width="5" shape-rendering="crispEdges"/>
</g>
<path d="M477.033 652.558C478.018 655.558 478.511 657.558 482.45 659.058C485.602 660.258 489.181 659.892 489.838 660.058" stroke="#FF0000" stroke-width="5"/>
<path d="M508.029 629.986C508.457 627.189 509.549 626.01 511.029 623.683C512.743 620.986 514.029 622.051 514.029 620.986" stroke="black" stroke-width="3"/>
<path d="M518.199 615.998C518.199 621.498 515.199 617.998 511.876 624.164C510.346 627.005 508.812 626.867 508.199 627.998" stroke="black" stroke-width="3"/>
<path d="M478.529 611.498C477.029 614.998 477.029 613.998 476.029 615.998C475.029 617.998 474.529 618.998 474.029 619.998C473.629 620.798 473.529 621.664 473.529 621.998" stroke="black" stroke-width="3"/>
<path d="M497.225 657.058C503.627 662.058 500.672 662.058 506.582 661.058C511.31 660.258 515.447 659.058 516.924 658.558" stroke="#FF0000" stroke-width="4"/>
<path d="M482.943 668.558C475.063 671.558 478.018 670.058 471.616 673.058M471.616 673.058C466.457 675.476 466.527 676.392 466.199 676.558L471.616 673.058Z" stroke="#FF0000" stroke-width="5"/>
<path d="M485.898 667.558C481.465 675.558 480.481 669.058 478.511 680.058M478.511 680.058C476.935 688.858 475.884 692.392 475.556 693.058L478.511 680.058Z" stroke="#FF0000" stroke-width="5"/>
<g filter="url(#filter8_d_0_1)">
<path d="M484.913 673.558C485.405 678.558 482.835 681.058 487.375 681.058M487.375 681.058C490.33 681.058 489.838 682.058 489.838 685.058L487.375 681.058Z" stroke="#FF0000" stroke-width="3" shape-rendering="crispEdges"/>
</g>
<path d="M480.699 602.998C480.699 604.907 480.951 609.088 478.699 610.998C476.446 612.907 477.453 612.861 476.703 614.134C475.952 615.407 474.451 617.316 473.7 617.952C473.099 618.461 472.449 623.861 472.199 624.498" stroke="black" stroke-width="3"/>
<rect x="40" y="4" width="32.5469" height="30" rx="3" fill="white"/>
<rect x="40.5" y="4.5" width="31.5469" height="29" rx="2.5" stroke="black" stroke-opacity="0.2"/>
<path d="M49.4531 16V16.7812H46.3438V16H49.4531ZM47.25 14.5625H48.1719V20.2812C48.1719 20.5417 48.2096 20.737 48.2852 20.8672C48.3633 20.9948 48.4622 21.0807 48.582 21.125C48.7044 21.1667 48.8333 21.1875 48.9688 21.1875C49.0703 21.1875 49.1536 21.1823 49.2188 21.1719C49.2839 21.1589 49.3359 21.1484 49.375 21.1406L49.5625 21.9687C49.5 21.9922 49.4128 22.0156 49.3008 22.0391C49.1888 22.0651 49.0469 22.0781 48.875 22.0781C48.6146 22.0781 48.3594 22.0221 48.1094 21.9102C47.862 21.7982 47.6563 21.6276 47.4922 21.3984C47.3307 21.1693 47.25 20.8802 47.25 20.5312V14.5625ZM53.4492 16V16.7812H50.3398V16H53.4492ZM51.2461 14.5625H52.168V20.2812C52.168 20.5417 52.2057 20.737 52.2813 20.8672C52.3594 20.9948 52.4583 21.0807 52.5781 21.125C52.7005 21.1667 52.8294 21.1875 52.9648 21.1875C53.0664 21.1875 53.1497 21.1823 53.2148 21.1719C53.2799 21.1589 53.332 21.1484 53.3711 21.1406L53.5586 21.9687C53.4961 21.9922 53.4089 22.0156 53.2969 22.0391C53.1849 22.0651 53.043 22.0781 52.8711 22.0781C52.6107 22.0781 52.3555 22.0221 52.1055 21.9102C51.8581 21.7982 51.6523 21.6276 51.4883 21.3984C51.3268 21.1693 51.2461 20.8802 51.2461 20.5312V14.5625ZM57.2871 22.125C56.709 22.125 56.2103 21.9974 55.791 21.7422C55.3743 21.4844 55.0527 21.125 54.8262 20.6641C54.6022 20.2005 54.4902 19.6615 54.4902 19.0469C54.4902 18.4323 54.6022 17.8906 54.8262 17.4219C55.0527 16.9505 55.3678 16.5833 55.7715 16.3203C56.1777 16.0547 56.6517 15.9219 57.1934 15.9219C57.5059 15.9219 57.8145 15.974 58.1191 16.0781C58.4238 16.1823 58.7012 16.3516 58.9512 16.5859C59.2012 16.8177 59.4004 17.125 59.5488 17.5078C59.6973 17.8906 59.7715 18.362 59.7715 18.9219V19.3125H55.1465V18.5156H58.834C58.834 18.1771 58.7663 17.875 58.6309 17.6094C58.498 17.3437 58.3079 17.1341 58.0605 16.9805C57.8158 16.8268 57.5267 16.75 57.1934 16.75C56.8262 16.75 56.5085 16.8411 56.2402 17.0234C55.9746 17.2031 55.7702 17.4375 55.627 17.7266C55.4837 18.0156 55.4121 18.3255 55.4121 18.6562V19.1875C55.4121 19.6406 55.4902 20.0247 55.6465 20.3398C55.8053 20.6523 56.0254 20.8906 56.3066 21.0547C56.5879 21.2161 56.9147 21.2969 57.2871 21.2969C57.5293 21.2969 57.748 21.263 57.9434 21.1953C58.1413 21.125 58.3118 21.0208 58.4551 20.8828C58.5983 20.7422 58.709 20.5677 58.7871 20.3594L59.6777 20.6094C59.584 20.9115 59.4264 21.1771 59.2051 21.4062C58.9837 21.6328 58.7103 21.8099 58.3848 21.9375C58.0592 22.0625 57.6934 22.125 57.2871 22.125ZM62.9395 22.1406C62.5592 22.1406 62.2142 22.069 61.9043 21.9258C61.5944 21.7799 61.3483 21.5703 61.166 21.2969C60.9837 21.0208 60.8926 20.6875 60.8926 20.2969C60.8926 19.9531 60.9603 19.6745 61.0957 19.4609C61.2311 19.2448 61.4121 19.0755 61.6387 18.9531C61.8652 18.8307 62.1152 18.7396 62.3887 18.6797C62.6647 18.6172 62.9421 18.5677 63.2207 18.5313C63.5853 18.4844 63.8809 18.4492 64.1074 18.4258C64.3366 18.3997 64.5033 18.3568 64.6074 18.2969C64.7142 18.237 64.7676 18.1328 64.7676 17.9844V17.9531C64.7676 17.5677 64.6621 17.2682 64.4512 17.0547C64.2428 16.8411 63.9264 16.7344 63.502 16.7344C63.0618 16.7344 62.7168 16.8307 62.4668 17.0234C62.2168 17.2161 62.041 17.4219 61.9395 17.6406L61.0645 17.3281C61.2207 16.9635 61.429 16.6797 61.6895 16.4766C61.9525 16.2708 62.2389 16.1276 62.5488 16.0469C62.8613 15.9635 63.1686 15.9219 63.4707 15.9219C63.6634 15.9219 63.8848 15.9453 64.1348 15.9922C64.3874 16.0365 64.6309 16.1289 64.8652 16.2695C65.1022 16.4102 65.2988 16.6224 65.4551 16.9062C65.6113 17.1901 65.6895 17.5703 65.6895 18.0469V22H64.7676V21.1875H64.7207C64.6582 21.3177 64.554 21.457 64.4082 21.6055C64.2624 21.7539 64.0684 21.8802 63.8262 21.9844C63.584 22.0885 63.2884 22.1406 62.9395 22.1406ZM63.0801 21.3125C63.4447 21.3125 63.752 21.2409 64.002 21.0977C64.2546 20.9544 64.4447 20.7695 64.5723 20.543C64.7025 20.3164 64.7676 20.0781 64.7676 19.8281V18.9844C64.7285 19.0312 64.6426 19.0742 64.5098 19.1133C64.3796 19.1497 64.2285 19.1823 64.0566 19.2109C63.8874 19.237 63.722 19.2604 63.5605 19.2812C63.4017 19.2995 63.2728 19.3151 63.1738 19.3281C62.9342 19.3594 62.7103 19.4102 62.502 19.4805C62.2962 19.5482 62.1296 19.651 62.002 19.7891C61.877 19.9245 61.8145 20.1094 61.8145 20.3437C61.8145 20.6641 61.9329 20.9062 62.1699 21.0703C62.4095 21.2318 62.7129 21.3125 63.0801 21.3125Z" fill="black"/>
<defs>
<filter id="filter0_d_0_1" x="485.503" y="660.264" width="44.4434" height="28.0248" filterUnits="userSpaceOnUse" color-interpolation-filters="sRGB">
<feFlood flood-opacity="0" result="BackgroundImageFix"/>
<feColorMatrix in="SourceAlpha" type="matrix" values="0 0 0 0 0 0 0 0 0 0 0 0 0 0 0 0 0 0 127 0" result="hardAlpha"/>
<feOffset dy="4"/>
<feGaussianBlur stdDeviation="2.5"/>
<feComposite in2="hardAlpha" operator="out"/>
<feColorMatrix type="matrix" values="0 0 0 0 0 0 0 0 0 0 0 0 0 0 0 0 0 0 0.25 0"/>
<feBlend mode="normal" in2="BackgroundImageFix" result="effect1_dropShadow_0_1"/>
<feBlend mode="normal" in="SourceGraphic" in2="effect1_dropShadow_0_1" result="shape"/>
</filter>
<filter id="filter1_d_0_1" x="490.039" y="664.921" width="41.2356" height="34.7316" filterUnits="userSpaceOnUse" color-interpolation-filters="sRGB">
<feFlood flood-opacity="0" result="BackgroundImageFix"/>
<feColorMatrix in="SourceAlpha" type="matrix" values="0 0 0 0 0 0 0 0 0 0 0 0 0 0 0 0 0 0 127 0" result="hardAlpha"/>
<feOffset/>
<feComposite in2="hardAlpha" operator="out"/>
<feColorMatrix type="matrix" values="0 0 0 0 0 0 0 0 0 0 0 0 0 0 0 0 0 0 0.25 0"/>
<feBlend mode="normal" in2="BackgroundImageFix" result="effect1_dropShadow_0_1"/>
<feBlend mode="normal" in="SourceGraphic" in2="effect1_dropShadow_0_1" result="shape"/>
</filter>
<filter id="filter2_d_0_1" x="499.798" y="263.997" width="243.006" height="272.459" filterUnits="userSpaceOnUse" color-interpolation-filters="sRGB">
<feFlood flood-opacity="0" result="BackgroundImageFix"/>
<feColorMatrix in="SourceAlpha" type="matrix" values="0 0 0 0 0 0 0 0 0 0 0 0 0 0 0 0 0 0 127 0" result="hardAlpha"/>
<feOffset dy="10"/>
<feGaussianBlur stdDeviation="2.5"/>
<feComposite in2="hardAlpha" operator="out"/>
<feColorMatrix type="matrix" values="0 0 0 0 0 0 0 0 0 0 0 0 0 0 0 0 0 0 0.25 0"/>
<feBlend mode="plus-darker" in2="BackgroundImageFix" result="effect1_dropShadow_0_1"/>
<feBlend mode="normal" in="SourceGraphic" in2="effect1_dropShadow_0_1" result="shape"/>
</filter>
<filter id="filter3_d_0_1" x="469.301" y="496.465" width="54.154" height="137.738" filterUnits="userSpaceOnUse" color-interpolation-filters="sRGB">
<feFlood flood-opacity="0" result="BackgroundImageFix"/>
<feColorMatrix in="SourceAlpha" type="matrix" values="0 0 0 0 0 0 0 0 0 0 0 0 0 0 0 0 0 0 127 0" result="hardAlpha"/>
<feOffset dy="10"/>
<feGaussianBlur stdDeviation="2.5"/>
<feComposite in2="hardAlpha" operator="out"/>
<feColorMatrix type="matrix" values="0 0 0 0 0 0 0 0 0 0 0 0 0 0 0 0 0 0 0.25 0"/>
<feBlend mode="plus-darker" in2="BackgroundImageFix" result="effect1_dropShadow_0_1"/>
<feBlend mode="normal" in="SourceGraphic" in2="effect1_dropShadow_0_1" result="shape"/>
</filter>
<filter id="filter4_d_0_1" x="570.298" y="639.498" width="140.801" height="120.404" filterUnits="userSpaceOnUse" color-interpolation-filters="sRGB">
<feFlood flood-opacity="0" result="BackgroundImageFix"/>
<feColorMatrix in="SourceAlpha" type="matrix" values="0 0 0 0 0 0 0 0 0 0 0 0 0 0 0 0 0 0 127 0" result="hardAlpha"/>
<feOffset dy="10"/>
<feGaussianBlur stdDeviation="2"/>
<feComposite in2="hardAlpha" operator="out"/>
<feColorMatrix type="matrix" values="0 0 0 0 0 0 0 0 0 0 0 0 0 0 0 0 0 0 0.25 0"/>
<feBlend mode="plus-darker" in2="BackgroundImageFix" result="effect1_dropShadow_0_1"/>
<feBlend mode="normal" in="SourceGraphic" in2="effect1_dropShadow_0_1" result="shape"/>
</filter>
<filter id="filter5_d_0_1" x="313.932" y="737.058" width="516.096" height="88.688" filterUnits="userSpaceOnUse" color-interpolation-filters="sRGB">
<feFlood flood-opacity="0" result="BackgroundImageFix"/>
<feColorMatrix in="SourceAlpha" type="matrix" values="0 0 0 0 0 0 0 0 0 0 0 0 0 0 0 0 0 0 127 0" result="hardAlpha"/>
<feOffset dy="10"/>
<feGaussianBlur stdDeviation="2"/>
<feComposite in2="hardAlpha" operator="out"/>
<feColorMatrix type="matrix" values="0 0 0 0 0 0 0 0 0 0 0 0 0 0 0 0 0 0 0.25 0"/>
<feBlend mode="plus-darker" in2="BackgroundImageFix" result="effect1_dropShadow_0_1"/>
<feBlend mode="normal" in="SourceGraphic" in2="effect1_dropShadow_0_1" result="shape"/>
</filter>
<filter id="filter6_d_0_1" x="501.298" y="830.498" width="140" height="81" filterUnits="userSpaceOnUse" color-interpolation-filters="sRGB">
<feFlood flood-opacity="0" result="BackgroundImageFix"/>
<feColorMatrix in="SourceAlpha" type="matrix" values="0 0 0 0 0 0 0 0 0 0 0 0 0 0 0 0 0 0 127 0" result="hardAlpha"/>
<feOffset dy="10"/>
<feGaussianBlur stdDeviation="2"/>
<feComposite in2="hardAlpha" operator="out"/>
<feColorMatrix type="matrix" values="0 0 0 0 0 0 0 0 0 0 0 0 0 0 0 0 0 0 0.25 0"/>
<feBlend mode="plus-darker" in2="BackgroundImageFix" result="effect1_dropShadow_0_1"/>
<feBlend mode="normal" in="SourceGraphic" in2="effect1_dropShadow_0_1" result="shape"/>
</filter>
<filter id="filter7_d_0_1" x="463.661" y="658.038" width="28.6989" height="16.5224" filterUnits="userSpaceOnUse" color-interpolation-filters="sRGB">
<feFlood flood-opacity="0" result="BackgroundImageFix"/>
<feColorMatrix in="SourceAlpha" type="matrix" values="0 0 0 0 0 0 0 0 0 0 0 0 0 0 0 0 0 0 127 0" result="hardAlpha"/>
<feOffset dy="4"/>
<feGaussianBlur stdDeviation="2"/>
<feComposite in2="hardAlpha" operator="out"/>
<feColorMatrix type="matrix" values="0 0 0 0 0 0 0 0 0 0 0 0 0 0 0 0 0 0 0.25 0"/>
<feBlend mode="normal" in2="BackgroundImageFix" result="effect1_dropShadow_0_1"/>
<feBlend mode="normal" in="SourceGraphic" in2="effect1_dropShadow_0_1" result="shape"/>
</filter>
<filter id="filter8_d_0_1" x="479.126" y="673.411" width="16.2426" height="24.945" filterUnits="userSpaceOnUse" color-interpolation-filters="sRGB">
<feFlood flood-opacity="0" result="BackgroundImageFix"/>
<feColorMatrix in="SourceAlpha" type="matrix" values="0 0 0 0 0 0 0 0 0 0 0 0 0 0 0 0 0 0 127 0" result="hardAlpha"/>
<feOffset dy="4"/>
<feGaussianBlur stdDeviation="2"/>
<feComposite in2="hardAlpha" operator="out"/>
<feColorMatrix type="matrix" values="0 0 0 0 0 0 0 0 0 0 0 0 0 0 0 0 0 0 0.25 0"/>
<feBlend mode="normal" in2="BackgroundImageFix" result="effect1_dropShadow_0_1"/>
<feBlend mode="normal" in="SourceGraphic" in2="effect1_dropShadow_0_1" result="shape"/>
</filter>
</defs>
</svg>
